/* XPM */
static char *ff6274e987b74fa8e8a482d0e14b47efBNvX8hoy1ywFpP7g[] = {
/* columns rows colors chars-per-pixel */
"64 64 145 2 ",
"   c #272D2C",
".  c #2B2E2D",
"X  c #2D302F",
"o  c #30322F",
"O  c #2C2F30",
"+  c #2E3231",
"@  c #323534",
"#  c #353936",
"$  c #383A37",
"%  c #343739",
"&  c #353A3A",
"*  c #3A3D3C",
"=  c #3D413E",
"-  c #41423F",
";  c #3C3E40",
":  c #374140",
">  c #3E4241",
",  c #434543",
"<  c #454846",
"1  c #494A46",
"2  c #424649",
"3  c #464C4B",
"4  c #4B4D4C",
"5  c #47504F",
"6  c #4D504F",
"7  c #50514F",
"8  c #4D4E51",
"9  c #4C5453",
"0  c #4F5857",
"q  c #4F5759",
"w  c #525554",
"e  c #545957",
"r  c #535759",
"t  c #535B5A",
"y  c #595D5E",
"u  c #57605F",
"i  c #5C605F",
"p  c #565E60",
"a  c #5B5F61",
"s  c #576161",
"d  c #5C6363",
"f  c #5F6867",
"g  c #5E6468",
"h  c #616565",
"j  c #636967",
"k  c #636669",
"l  c #646A6B",
"z  c #696D6C",
"x  c #6B6D6C",
"c  c #6A6E6D",
"v  c #696D6E",
"b  c #6B6C6E",
"n  c #696F6F",
"m  c #6B6F6E",
"M  c #6C6C6C",
"N  c #6C6E6D",
"B  c #6C6D6F",
"V  c #696D6C",
"C  c #666E70",
"Z  c #6B6F70",
"A  c #6A6E72",
"S  c #667071",
"D  c #6B7171",
"F  c #6A7372",
"G  c #6D7170",
"H  c #6C7071",
"J  c #6E7271",
"K  c #6C7272",
"L  c #6D7373",
"P  c #6F7372",
"I  c #6B7473",
"U  c #6B7375",
"Y  c #6F7374",
"T  c #6B7574",
"R  c #6C7574",
"E  c #6E7474",
"W  c #6F7575",
"Q  c #6D7675",
"!  c #6C7675",
"~  c #6C7274",
"^  c #6F7877",
"/  c #6E7678",
"(  c #707271",
")  c #717372",
"_  c #727471",
"`  c #707473",
"'  c #727473",
"]  c #717574",
"[  c #727675",
"{  c #717576",
"}  c #707676",
"|  c #717777",
" . c #737776",
".. c #727677",
"X. c #747675",
"o. c #757776",
"O. c #717575",
"+. c #727876",
"@. c #747877",
"#. c #767877",
"$. c #767B77",
"%. c #737778",
"&. c #757678",
"*. c #727679",
"=. c #707978",
"-. c #727878",
";. c #737979",
":. c #757978",
">. c #747879",
",. c #777978",
"<. c #767A79",
"1. c #77787A",
"2. c #757B7B",
"3. c #777B7A",
"4. c #777B7C",
"5. c #757A7D",
"6. c #787A79",
"7. c #78797B",
"8. c #797B7A",
"9. c #787C7B",
"0. c #7A7B7D",
"q. c #797D7C",
"w. c #7B7D7C",
"e. c #7C7E7D",
"r. c #787C7C",
"t. c #7E807F",
"y. c #7F8180",
"u. c #7B8285",
"i. c #7E848A",
"p. c #808281",
"a. c #828A8D",
"s. c #8B9395",
"d. c #8E9698",
"f. c #919699",
"g. c #939B9D",
"h. c #969EA1",
"j. c #989FA5",
"k. c #9AA2A5",
"l. c #9EA6A9",
"z. c #ABB3B5",
"x. c #AEB5B9",
"c. c #B0B7BD",
"v. c #B0B8BB",
"b. c #B7BFC1",
"n. c #BDC5C7",
/* pixels */
"; & % @ * % # # # @ # % # @ @ @ % % % % % % % % # % % + @ # $ $ # @ @ $ % # * % % % % @ % % % * @ @ # % % # # # # @ $ * % @ % : ",
"& & * % * * = = * * * = * $ $ * * * * * * * * * * $ * * * $ * = * * $ * * * = * * * $ & * * * ; * % % * * * * * = * $ $ % $ $ & ",
"; ; 4 3 4 4 4 4 4 4 4 4 4 3 3 3 4 4 4 4 4 4 4 4 w 6 w w 6 3 4 < < 4 4 4 w w 9 9 6 6 4 4 6 9 8 8 4 4 4 4 6 6 9 9 4 4 6 3 3 3 = * ",
"* ; 8 w e w 4 w e w w w w w w w w w w w w w w e e e e w w w y 3 4 e w w e e e t w w 6 4 w w w 9 4 4 9 w w w w w 7 6 w w w w > ; ",
"; , 8 , < 3 < 4 6 4 4 4 4 3 3 3 3 3 3 3 3 3 4 6 4 9 3 3 < , e 3 3 w , < w 4 4 w w w 4 3 4 6 4 4 3 3 4 6 6 4 6 w 4 3 3 < , 9 < > ",
"* < 4 , i #.( P 2.2.7.0.4.%.{ { { 2.2.o.{ 7.e.e.t.p.7.e.V < 7 3 3 w < h q.7.p.t.2.2.{ P { #.{ { ( ` o.#.#.o.o.2.( ( #.h , 6 < * ",
"* , 3 , l q.l l l c Y 2.%.E D P D P P P P { { Y c P l 7.( < 4 4 3 w < V e.V ( x { #.{ Y { -.E E P P ` { #.` c x d j 2.V , 4 3 , ",
"= , 3 , j c t j a j Z -.2.{ E E E E E E ^ 2.-.P c c y c c 3 w 3 < w < V o.y N c P { { E { { E U P P P #.2.P j y l y N c , 3 > * ",
"* , 3 , j V i +.a d P { -.{ D E E E E I E -.{ P { q.t P V , w 3 < w , V o.t #.{ c E { E ^ -.E U D P E %.&.Z j y #.y b M - 1 , & ",
"= - < * l N w t t t j l j j d d d f f d j l l j y j 9 P N , 6 3 < w , V ` e j y j v l j j j f d d d j l l j y t e 9 N V * , , > ",
"$ , 3 * l { d j d a j j j d d d d d d d d j l l V { j 2.N , 4 3 < 9 , V 7.l { l v v j d f j d d d d d l l j d d j d &.V * 1 , * ",
"$ < 4 * h P j E l j j j j j d d d j j d d j l v ` y.{ { l < 4 3 3 6 , j 2.` q.{ v v j d j j d d d d d j j j j j E l ` j * 3 , * ",
"$ > 3 * j P d D l d d d d d y d d d d d d d j v c q.` P j < 4 < , 4 < j o.{ 2.D v j d d j k d d d d d d d d j j v d Y j = 1 , > ",
"* > 3 * l { j P j d d d d d d d d d j d d d j v E 4.P { x , 4 < , 4 , l o.{ 4.I v l d d j j d d d d d d d d j j I k %.b = < > > ",
"* , 3 $ d c d c d d d d d d y d d d d d d d j l P 2.Z P V = 4 1 , 7 - j ( P 2.D l j d d d d d a y d d d d d d j U d Z k $ 1 , * ",
"$ > < $ j P d v d d d d d d y u d d d d d d j j v 4.E P V * 4 - - 4 * V o.E 4.D l j d d d j d d y y d d d d d d S a Y V $ < , % ",
"; > < * h Z d l d d d d d y y y d d d d d d d k Z 4.Z Y l ; 4 , - 4 , h { Y 4.Z l d d d d j d d y y d d d d d k C g A l * , = $ ",
"; > < * h Z d j d d d d d y y y d d d d d d g k Z 4.Z Y l ; 4 , - 4 , h { Y 4.Z l d d d d j d d y y d d d d d g v d A l * , = $ ",
"; > < * h Z d l d d d d d y y y y d d d d d d l Z 4.Z Y l ; 4 , - 4 , j { Y 4.Z k d d d d j d a y y d d d d d d v d Z l * , = $ ",
"; > < * h Z d l d d d d d y y y y d d d d d d j Z 4.Z Y l ; 4 , - 4 , j { Y 4.Z k d d d d j a a y y d d d d g g v d Z l * < = & ",
"* > , * h Z d l d d d d d y y y y d d d d d d j Z 4.Z Y l ; 4 , - 4 , j { U 4.Z k d d d d j a y y y d d d d g g v d Z k * < = & ",
"* > , * h Z d k d d d d d y y y y d d d d d d j Z 4.Z Y l ; 4 , - 4 , j { U 4.Z k d d d d j a y y y a d d d d d v d A k * , = $ ",
"* = , * h Z d l d d d d d y y y y d d d d d d j Z 4.Z Y l ; 4 , - 4 , j { U 4.Z l d d d d j a y y y d d d d d d v d A k * , = $ ",
"* = , $ h Z d l d d d d d y y y y d d d d d d j Z 4.Z Y l ; 4 , - 4 , j { U 4.Z l d d d d j a y y y d d d d d d C g A k * , = $ ",
"* = , $ h Z d l d d d d d y y y d d d d d u d j D 4.A Y k ; 4 , , 4 , h { P 4.D v d d d d d a d y t y d d d d d C d A l * , - $ ",
"* = , $ h Z d l d d d d d y y y y d d d d d d j c 4.A Y k ; 4 - - 4 , h { P 4.Z g d d d j d y y y y a d d d d d C d A l * , - $ ",
"* > , $ h Z d l d d d d d u y y a d d d d d f l Z 4.Z Y l ; 4 , - 4 , j { Y 4.D k g k y j d a a y y y d d d d d C d A k * , = $ ",
"* > , $ j Z d v d d d d d u y u a d d y y y d j Z 4.Z Y l ; 4 , - 4 , h ` Z 4.Z k d d y j j a a y y y d d d d d v d Z k * , > % ",
"; > , $ d Z d j d d d s d y y y t t d y d d d v C 4.Z P k * 4 , - 3 = d P Z -.Z j d d a j d y t y y y d d d d d v a Z k * , > % ",
"; > , $ d C d j d d s u u y t y i y y t g / U E D 4.Z Y k * 3 - * 3 = d P Z 4.Z U E %.j a d d d y t y d u d d d l a Z k $ , > $ ",
"& > , $ d l a j d d y y y t t y t t y d a.v.x.l.v -.Z P l * 3 , * 3 > d Y Z %.C l.x.z.s.d s y t t t y u y u d d l a Z k $ , = % ",
"& > , $ d l a j d s y t y t t y t y y s s.n.z.a.d U l c k * 3 = * 3 = d P l Y k a.z.b.h.s s s t t t t y y y s s l a Z k * , = $ ",
"& = , % y l y k y u y t t t t t t t y t d.z.h.u.p E l D d * 3 > ; 4 * y P v Y d u.j.x.h.p a y a t t t y y y u u f p l h $ , = $ ",
"& = , $ y l y k y y y t t t 0 t y t t t d.z.k.u.p U l Z d * 3 = * 4 * y D l Y a i.j.z.g.p d y t t 0 t t t t y y f y l d $ - = % ",
"& * , % y l t d t y t t t 0 0 t t t t t d.z.j.i.p U j Z d * < * * 3 $ y Z l Y a i.h.z.h.p p y t 0 0 0 t t t y t d y l d $ - = % ",
"& * , % y l t d t y t t 0 0 0 t t t t t s.z.j.i.p U k Z d $ < $ $ < $ y c k Z a u.h.x.g.y y y 0 0 0 0 0 t t y t d y l d $ - = % ",
"& * , $ y l t d t y t 0 0 0 0 t 0 t 0 q d.x.k.u.p U k v a % < $ # < % y c k Z a u.h.x.g.p y t 9 0 0 0 0 0 t y t d y l d # - = % ",
"% * , % y j t d t y t 0 0 0 0 0 0 0 0 q d.x.k.u.y D g l a % , $ @ < % t x j Z a i.k.v.f.s t 0 0 0 0 0 0 0 t y t d y l a # - = % ",
"% * , @ t j t d 0 t t 9 9 0 0 0 0 0 t 0 u.s.u.U t C d j y # , # @ < # t V j c y Y i.f.u.p 0 0 t 0 0 0 9 0 t y t d y k a # - = % ",
"% * , # t h t d 0 t 0 9 9 9 9 9 0 t t 5 d d 0 0 t C d j y # , # @ , # e l j c y r r d d t y 0 0 0 9 9 9 9 0 t 0 d t k a # - = % ",
"% * > % t j w d 0 t t 9 9 9 9 0 0 0 0 0 t w 0 y d c d j t @ , @ @ , @ t l d v d y w t t t t 0 0 9 9 9 9 5 e 0 0 d w j y @ , = $ ",
"% * > % t j w d 0 0 t 9 9 9 9 0 0 0 0 0 t w 0 y d c d j t @ , @ @ , @ t l d v d y t t t t t 0 0 9 9 9 9 5 e 0 0 d w j y @ , = # ",
"% * > @ t j w d 0 0 0 9 9 5 9 0 0 0 0 0 t t 0 y d c d j t @ , @ @ , @ t l d v d y t t t t t 0 0 9 9 9 9 9 t t 0 d w j y @ , $ # ",
"% * > @ e j 0 d 0 0 0 9 9 5 9 0 0 0 0 0 t t w y d c d j t @ , @ @ , @ t l d v d y t t t t t 0 0 9 9 9 9 9 t t 0 d w j y @ , $ # ",
"% * > # e j 0 d 0 0 0 9 9 5 9 0 0 0 0 0 t t w y d c d j t @ , @ @ , @ t l d v d y w t t t t 0 0 9 9 4 9 9 t t 0 d w j y @ , $ # ",
"% * > # e j 0 d 0 0 0 9 9 5 9 0 0 0 0 0 t t w y d c d j t @ , @ @ , @ t l d v d y w t t t t 0 0 9 9 4 9 9 t t 0 d w j y @ > $ # ",
"% * > # t j 0 d 0 0 0 9 9 9 9 0 0 0 0 0 t t w y d c d j t @ , @ @ , @ t l d v d y w t t t t 0 0 9 9 8 9 9 t t 0 d w j y @ > $ # ",
"% * > # t j 0 d 0 0 0 9 9 9 9 0 0 0 0 0 t t w y d c d j t @ , @ @ , @ t l d v d y t t t y t 0 0 9 9 8 9 9 t t 0 d w j y @ > $ # ",
"& * = # y k 0 d 0 0 t 9 9 9 5 9 0 0 0 0 t t 0 y d v d l t + , % # , @ w l d c d y 0 t t t t 9 0 9 9 9 5 9 0 0 t d w h y @ > $ # ",
"% $ = # t k 0 d 0 0 t 9 9 9 9 0 0 9 0 0 t t 0 y d v d l t @ > @ @ , @ t l d c d y 0 t t t t 9 0 9 9 9 5 9 0 0 0 d r j y @ , $ # ",
"& * = # r j w d 0 0 0 9 5 9 5 0 0 0 0 0 t t 0 y s l d j t @ > @ @ , @ e j d v d t 0 t t t t 9 9 9 5 9 5 9 0 0 0 d 0 j y @ , $ # ",
"& * - # r d 0 d 0 0 0 5 3 5 5 9 0 0 0 0 t t 0 y y j d j t @ > @ @ , @ w j d l d t w t t t t 9 0 9 5 5 3 9 0 0 0 d 0 d y @ , $ # ",
"% * = @ r h 0 d 0 0 0 5 3 5 3 9 0 0 0 0 0 t 0 t y v d j t @ > + @ , @ w j d v d t w t 0 0 0 0 0 9 5 9 3 9 0 0 0 d w j y @ , $ # ",
"% * = @ e d 9 y 9 0 0 5 3 5 3 9 0 9 0 9 0 t 0 w t j t j e + > @ @ > @ e j y d y w 0 w w 0 0 9 9 9 5 3 3 9 0 9 9 d 0 h y @ , $ # ",
"& * * @ e a 4 e 3 5 9 5 3 5 3 9 9 9 0 9 w t 9 9 w y 9 y e @ = @ @ * @ e d 9 t w 0 9 w w w 0 9 9 9 3 5 3 5 9 3 3 t 4 y t @ , $ # ",
"% $ * @ w a 4 w 2 3 9 9 9 9 3 9 0 9 0 9 r t 9 9 w t 3 y e @ * @ o * @ w y 3 t r 9 9 t t t t 9 9 9 5 9 9 9 9 3 2 t 4 a t @ , $ @ ",
"* % > @ 9 t 3 k 3 w d d y u d d d j d d j j d t a k > y w @ , . . > @ w a > k d t d l j j j j d d d d d d d w , v 3 y e @ - # @ ",
"% % > @ 9 d > , > 3 w t r r t t t t t t y y t w 2 8 * y w X * @ X * . w y & 4 2 w t y y y y y t t t 0 0 t r 4 > , ; h e @ , $ @ ",
"% % > @ 6 l w 4 w y d y y y y y y d u y d d d d a y r l e . % @ . $ + w l t y y d d d d d d d u y y y t y d y w 9 r c w @ = # + ",
"% @ = @ , e r t t t t w 9 0 0 w 9 e 0 0 e t t t y t w r , . $ @ @ * . , r w t y t e e t t e 0 0 9 0 9 9 w t t w y t t , @ > # $ ",
"@ @ > @ . . . O . O + + + . .     X X X + + + + @ + @ + . . % . . % . . + @ O @ + X X + + X . X . X . . . X X . X . . . @ > # @ ",
"@ > w 6 6 9 9 4 3 4 4 4 4 4 4 4 4 5 4 4 6 6 4 4 4 4 9 4 3 w w = > 9 9 3 4 6 3 4 6 4 4 9 9 6 4 4 4 4 4 4 4 4 4 4 4 w 6 4 9 w = @ ",
"% * < , < < 3 , 3 3 < < , , < 3 , < , , 3 < < , < 3 , < , < , @ # , < , 3 < < < < < < < < < , , , < < < < < < < > < , < < 3 * % ",
"% @ @ X o . + + . . + @ + X X @ @ + . . @ @ . @ + + . @ X + . @ + + + . @ . + . . . . . . . X . X X X . . X . . o @ . + . X . @ "
};
