/* XPM */
static char *fa519323d92c4c20a9364a6491cd7df2QY298XVbfA9TXUBI[] = {
/* columns rows colors chars-per-pixel */
"64 64 167 2 ",
"   c #3B3B3B",
".  c #4A4A17",
"X  c #4F4F19",
"o  c #53531B",
"O  c #65651D",
"+  c #4D4D23",
"@  c #65652D",
"#  c #696929",
"$  c #0F4F4F",
"%  c #005B5B",
"&  c #294D4D",
"*  c #2D5151",
"=  c #026363",
"-  c #006B6B",
";  c #0B6E6E",
":  c #007575",
">  c #0B7575",
",  c #007C7C",
"<  c #0A7B7B",
"1  c #147C7C",
"2  c #2D7777",
"3  c #2E7979",
"4  c #327D7D",
"5  c #3B7979",
"6  c #414141",
"7  c #4A4A4A",
"8  c #51514C",
"9  c #575757",
"0  c #585854",
"q  c #5D5D5B",
"w  c #62625F",
"e  c #666666",
"r  c #6C6C6C",
"t  c #737373",
"y  c #7B7B7A",
"u  c #8E8E22",
"i  c #959522",
"p  c #95953F",
"a  c #828245",
"s  c #8C8C4A",
"d  c #888859",
"f  c #838354",
"g  c #929254",
"h  c #81817F",
"j  c #008484",
"k  c #088383",
"l  c #008D8D",
"z  c #098C8C",
"x  c #148383",
"c  c #138989",
"v  c #009393",
"b  c #0C9292",
"n  c #009C9C",
"m  c #0C9B9B",
"M  c #129494",
"N  c #1A9494",
"B  c #139D9D",
"V  c #1C9A9A",
"C  c #01A4A4",
"Z  c #0CA3A3",
"A  c #05A9A9",
"S  c #0CABAB",
"D  c #15A5A5",
"F  c #15ADAD",
"G  c #1BADAD",
"H  c #1DB1B1",
"J  c #21A6A6",
"K  c #2BA2A2",
"L  c #21AFAF",
"P  c #29AFAF",
"I  c #32ABAB",
"U  c #3EAFAF",
"Y  c #23B3B3",
"T  c #2BB3B3",
"R  c #26B8B8",
"E  c #2CBABA",
"W  c #33B3B3",
"Q  c #34BBBB",
"!  c #3BBDBD",
"~  c #408F8F",
"^  c #5E9494",
"/  c #43A5A5",
"(  c #45ABAB",
")  c #54A8A8",
"_  c #45B3B3",
"`  c #4DB5B5",
"'  c #44BCBC",
"]  c #48BEBE",
"[  c #51B7B7",
"{  c #50BEBE",
"}  c #5CBBBB",
"|  c #77A2A2",
" . c #62BCBC",
".. c #69BDBD",
"X. c #44C1C1",
"o. c #4BC3C3",
"O. c #53C3C3",
"+. c #5CC6C6",
"@. c #62C7C7",
"#. c #6BC0C0",
"$. c #65C8C8",
"%. c #69C9C9",
"&. c #6DC9C9",
"*. c #6ECDCD",
"=. c #6BC9C9",
"-. c #74C4C4",
";. c #71CACA",
":. c #77CBCB",
">. c #75CBCB",
",. c #75CBCB",
"<. c #78CCCC",
"1. c #7DCECE",
"2. c #7BCDCD",
"3. c #71D0D0",
"4. c #78D3D3",
"5. c #808080",
"6. c #8E8E8E",
"7. c #939393",
"8. c #9B9B9B",
"9. c #AEAEAE",
"0. c gray71",
"q. c #BCBCBC",
"w. c #82C5C5",
"e. c #80CFCF",
"r. c #80CDCD",
"t. c #83D1D1",
"y. c #81D0D0",
"u. c #84D1D1",
"i. c #85D2D2",
"p. c #84D7D7",
"a. c #84D3D3",
"s. c #8AD4D4",
"d. c #8FD7D7",
"f. c #8DD6D6",
"g. c #8BD5D5",
"h. c #8EDADA",
"j. c #8DDADA",
"k. c #93D3D3",
"l. c #92D9D9",
"z. c #95DADA",
"x. c #93D9D9",
"c. c #9FDFDF",
"v. c #9DDEDE",
"b. c #9EDEDE",
"n. c #A8DCDC",
"m. c #A2E0E0",
"M. c #A1E0E0",
"N. c #A5E1E1",
"B. c #A7E2E2",
"V. c #A5E2E2",
"C. c #A3E1E1",
"Z. c #A8E3E3",
"A. c #ABE4E4",
"S. c #ADE5E5",
"D. c #AFE6E6",
"F. c #ACE5E5",
"G. c #B0E6E6",
"H. c #B2E7E7",
"J. c #B1E6E6",
"K. c #B3E8E8",
"L. c #B7E9E9",
"P. c #B4E8E8",
"I. c #B5E9E9",
"U. c #BBEBEB",
"Y. c #B9EAEA",
"T. c #BAEBEB",
"R. c #C3C3C3",
/* pixels */
"                                                                                                                                ",
"  ; : : : : : : : : : : : : : : : : : : : : : : : : : : : : : : : : : : : : : : : : : : : : : : : : : : : : : : : : : : : : ; 6 ",
"  : j j j , j j , M M j j j , j z V j j j j j k V j j j j j j , : j j j j j j , M b j j j j j b N j , j j j z V j j j j j j > 6 ",
"  < v v v v v l j , l v v v v j , l v v l v j , l v l v v v l j j v l v l v v , , v v v l l j , l v v v v j : l l v l v v v <   ",
"  k C A C A C C l l C C C C C l l n C A C C v j v A A A C v l l l C C C C C C l l C C C C C l j n C C C C l l n A C C C C C k   ",
"  x Y Y Y Y Y k % % % % % % % % % % % % % % % % % % - v l l l v M Y Y Y Y T : % % % % % % % % % % % % % % % % % % : Y Y Y Y M   ",
"  c Y Y Y Y Q W l j j j , , , : : : : : : , : , , , - l l l l l M Y Y Y Y ! P v B D D D F D T T T ! O.+.+.$.*.p.} : Y Y Y Y M   ",
"  c Y D j.Y Q I l j , j j , , : : - : : : : , : , : - j j m m l M Y G a.Y ! R S F H Y R E Q ! o.%.&.:.g.z.M.V.S.w.: Y D *.X.M   ",
"  x S v n Y Q I j j j , , : , : : : : : : , , , , , - l , , v v B S v n Y ! ! F Y Y R R ! X.o.O.:.:.1.z.b.V.S.T.w.; F n v H M   ",
"  c Y F Y Y Q I j , , , : : , : : : : : : , , , j , - l l v n n M H F Y Y Q ! H Y R Q Q o.O.*.;.t.z.m.m.G.L.T.U.[ : Y F H Y M   ",
"  c Y Y Y Y Q I , , , : : : : : : : : , , : , j j , - l v n C Z M Y Y Y Y ! ! Y H R ! X.o.O.<.<.s.x.M.m.L.T.D.b.[ : L Y Y Y M   ",
"  c Y Y Y Y Q I , , : , : : : : : : , : , j j j j j - v n A H Z M Y Y Y Y ! ! Y ! Q o.o.;.<.u.d.b.V.D.L.T.G.N.N.K ; Y Y Y Y M   ",
"  c Y Y Y Y Q I , : : : : : : : : , , , , j j j j j - n A L Y Z M Y Y Y Y ! ! R ! X.+.+.:.2.j.v.M.V.L.T.D.A.d.t.V : Y Y Y Y M   ",
"  c Y Y Y Y Q I : , : : : : : , : , , j j j j j v l - A Y H C n M Y Y Y Y ! o.! o.o.&.:.s.t.b.M.G.T.T.S.m.x.t.:.N : Y Y Y Y M   ",
"  c Y Y Y Y Q I : : : : : : : , , , j , j j l l l j - L H C F Z M Y Y Y Y ! o.o.+.%.<.d.z.v.A.G.T.T.A.m.m.s.*.=.N ; Y Y Y Y M   ",
"  c Y D d.Y Q I : : : : : , : , , , j j l j l v n v - G C +.o.Z M Y J p.Y ! o.o.3.<.4.u.b.m.A.L.G.A.N.d.1.%.O.O.c : Y B &.' M   ",
"  c Y D C F Y I : : : : , , , , j j j l l l v n n v - n n v F Z M S v n Y ! +.&.2.y.b.M.G.A.U.T.L.m.z.4.:.&.O.o.b ; F n l H M   ",
"  c Y Y F C J I : : : , : , , , , j j l l l l n n n - Z F H Y Z M H F Y Y ! +.<.d.s.M.b.L.Y.T.m.x.s.2.%.+.o.X.Q z : Y G H Y M   ",
"  x T F C v J I : : , , , , j j j j l l v n n C C C - Y Y Y Y Z M Y Y Y Y ! $.s.v.M.L.P.T.S.S.A.x.y.;.+.O.o.E R k : L Y Y Y M   ",
"  c F n v l J I : , : , , , j j l l l v n n n C A n = L Y Y Y Z M Y Y Y Y ! 3.v.M.N.G.T.T.A.v.i.2.@.@.o.X.Q R R z ; Y Y Y Y M   ",
"  k n v v l J I : , , , j j j j l v v v n C C C H G = L Y Y Y Z M Y Y Y Y ! 3.b.Z.G.U.H.A.d.u.<.%.O.o.! ! R R H k ; Y Y Y Y M   ",
"  k v v l v D ( , , , j j j l l l v n n C C S F Y J - L Y Y Y Z M Y Y Y Y ! a.G.Y.U.D.n.N.j.2.%.$.o.X.R R Y Y Y k : Y Y Y Y M   ",
"  < v l l v _ .., j , j j j l l v n C C C A F Y R G - Y Y Y Y Z M Y Y Y Y +.A.L.U.S.D.d.s.;.+.o.o.Q E Y R Y S A , : Y Y Y Y M   ",
"  : j k D l ` -., j j j l v n v n n C A S H Y Y R P % L D +.o.Z M Y L p.Y 3.K.T.T.m.M.i.<.$.+.o.o.E R R Y F S C j = Y b ;.! M   ",
"  : l , j v O.2., j j l l l v n n C C C H Y R R ! T % G n v H Z M S v n Y 4.U.N.M.j.y.%.$.O.X.R Y R Y Y S C C C , = F l l H b   ",
"  < l l v n O.2.j j j l l n n C n A F Y H R H Q X.! % L F G Y Z M G F Y Y 4.K.S.b.1.:.+.O.X.X.Q R R H S A C n n , = Y F F C z   ",
"  : l v C S %.2.j l l v v n n C A S F Y R H ! X.O.] % Y L Y Y Z M Y Y L Y 4.D.x.a.$.*.o.o.Q Q R H Y F C A C n n , = Y G C n k   ",
"  < v C S Y +.} l l l n n C C A A Y Y Y Q E X.o.$.} * r t t t y y r t t r | x.2.+.O.O.X.E R R H H A C C n n v l : = H C v v k   ",
"  < C F Y L ] [ v v v n n C A F H Y R H X.X.O.%.;...& w e e e y t e e e e ^ %.@.$.O.o.! E Y Y Y F C C C n n v v : = C v v v k   ",
"  k F Y Y Y ] [ v n n C C A A Y Y Y E Q X.o.+.%.2.-.& e e e e y t e e e e ^ $.o.o.! ! R R Y H C A C C v v v l j : = v l l l k   ",
"  c Y Y Y Y ] { n C n A A H H Y R E X.o.+.+.>.d.v.k.& w # i d 5.y g u @ e ^ %.o.o.E Y R Y F F C C n n v v l l j : % l v v l k   ",
"  x Y D j.Y ] ` n n C S A H Y R H ! o.o.+.3.p.x.v.g.& q + o s 8.6.p + + q ^ $.] Q R Y Y H A C C C n v v v j j j : % l , B v k   ",
"  1 F v n Y ] { C A A F Y Y R E X.o.O.%.2.s.x.A.P.n.& 9 X O f 0.9.a O . q ^ +.Y R Y Y A A C n n n v v l j j j j - % v , j v z   ",
"  1 H F H Y ] { C S H H Y R R o.X.+.%.<.i.z.S.K.Y.n.& q 8 q 5.R.0.y q 8 q ^ +.R Y H H C C C C n v v l j j j j , : = l v l n z   ",
"  1 Y Y Y Y ] { A F Y Y R Q ! o.o.=.1.s.v.b.S.T.S.k.& e r y 8.R.R.8.t e e ^ o.Y R S C C C n n l l l l j , j , , - % l v n C b   ",
"  1 Y Y Y Y ' +.Y R R Q Q X.o.*.$.4.i.z.A.T.U.L.P.k.& q r 6.7.8.7.7.6.r q ^ { H S A C C n n v v l j j j j j , , : % v n S Y M   ",
"  1 Y Y Y Y ] +.Y R Y E X.o.O.%.<.z.l.M.Y.T.G.N.n.2.$ 2 4 4 4 ~ 5 4 4 4 3 ) O.F C C C n v l v j j j j , , : , : : % n S Y H b   ",
"  1 Y Y Y Y ] +.R E R o.o.%.%.a.s.M.G.U.U.A.G.m.b.,.% L Y Y Y Z c Y Y Y Y { ] C C n v v v l l j j j j , , , , : - - S Y H C z   ",
"  1 Y Y Y Y ] +.Q X.X.+.$.;.2.b.G.G.Y.Y.G.A.M.u.u...% L Y Y Y Z c Y Y Y Y { ' C C n n v v l j j j j , j , , : : - = Y F C F M   ",
"  1 Y D h.Y ] +.E X.o.+.=.2.d.b.n.Y.P.Z.N.b.s.s.2.} % L D +.o.Z c Y L p.Y { ' n n v l l j j j j j , : : : : : : - = H n 3.! M   ",
"  1 F v n Y ] =.o.@.+.:.f.v.m.L.L.T.A.D.b.v.s.<.,.` % F n v H Z c S v n Y O.' n v v v j j j j , , , , : : : : : - = n n v H M   ",
"  1 H F H Y ] %.o.+.;.s.s.S.S.U.K.S.b.v.4.s.:.+.o.' % L F H Y Z c H F Y Y { _ v v l l j j , j , , , : : : : : : - = S F H Y M   ",
"  1 Y Y Y Y ] <.%.<.s.V.m.D.T.U.A.V.b.v.u.:.%.+.o.W % L Y Y Y Z c Y Y Y Y { _ l l j j j j , , : : : : : : : : , - = Y Y Y Y M   ",
"  1 Y Y Y Y ] <.:.s.d.N.K.T.D.D.b.M.i.1.<.&.o.X.! L % L Y Y Y Z c Y Y Y Y O._ l j j j j j , , , : , : : : : : : : = Y Y Y Y M   ",
"  1 Y Y Y Y ' y.i.z.m.T.T.S.N.N.x.x.2.;.+.O.X.E E L % L Y Y Y Z c Y Y Y Y { ( j j j j : , , , : : : : : : : : : : = Y Y Y Y M   ",
"  1 Y Y Y Y ] u.S.D.D.T.Y.K.m.b.d.t.:.*.o.o.X.Q Y L % L Y Y Y Z c Y Y Y Y { ( j j j j , , : : : : : : : : : j j - = Y Y Y Y M   ",
"  1 Y Y Y Y ] a.m.T.U.K.m.b.d.d.:.%.O.o.! Q R Y Y G % L Y Y Y Z c Y Y Y Y { ( j j , , : : : : : : : , : : , , , - = Y Y Y Y M   ",
"  1 Y D h.Y ' d.T.T.A.G.M.M.u.1.%.%.o.X.X.R R Y Y L % L D +.o.Z c Y G i.Y O.( j , , : , , : : : : , : : , , j j : = Y D *.' M   ",
"  1 F v n Y ] d.L.S.V.m.a.t.:.:.o.o.! ! H R R Y F Z % F n v H Z c Y B A F ' / j , , : : : : : : : : : j j j j j : = F n v H M   ",
"  1 H F H Y ] d.S.A.b.x.s.2.@.+.o.X.R R H R Y S A n % L G H Y Z c Y Y F n ' / , : , : : : : : : : , , , j j j j : = Y G H Y M   ",
"  1 Y Y Y Y ] d.V.b.i.s.<.>.O.o.X.Q R R R R H A C n % L Y Y Y Z c Y S C v _ / , , : : : : : : : : : j , j j j v : = Y Y Y Y M   ",
"  1 Y Y Y Y ] i.v.i.1.:.+.+.X.Q R R H H H S C C n v % L Y Y Y Z c A n v l _ ( : : : : : , : : , j j j j j l l v , = Y Y Y Y M   ",
"  1 Y Y Y Y ] i.v.4.<.4.o.o.Q ! R R H H F C A n n v % L Y Y Y Z j n v v l _ / : : : : : : : , , , j j j l l v v , = Y Y Y Y M   ",
"  1 Y Y Y Y ] u.r.<.+.o.X.! H R Y Y F F C C n v v l % L Y Y Y Z , v l l l _ / : : : : : : , j , j j j l v v v n j = Y Y Y Y M   ",
"  1 Y Y Y Y ' :.;.&.o.o.Q E R R F Y F S C n n n v l % L L Y Y Z : v v l l _ / : : : : : , , j j j l l l l v n C j = Y Y Y Y M   ",
"  1 Y D x.Y ] <.@.o.! X.E R R H H F C C n n v l l l % L D +.o.Z : j k D l ( / : , : : j , j j j j j l v n n C C j = Y D ;.! M   ",
"  1 S v n Y ] &.o.! E E Y Y Y F A C n n v n z v l j % G C n G Z , j , j v _ / : : : , k j j k j l v v v n n C A < = F n n H M   ",
"  1 Y F L Y ] ,.@.@.+.O.O.O.O.O.] ] ] ` _ _ _ _ U B = L F H Y Z : v l v C '  .( ( ( ( ( ( ( ( _ _ _ ] ' ] ] ' ' B - Y G H Y M   ",
"  1 Y Y Y Y Q ' ' ' ' ' ' ' ' ' ' ' ' ' ' ' ] ' ! L B Y Y Y Y Z : l v C S Q ' ] ' ] ' ' ] ' ' ' ' ] ' ] ' ' ' ! Y D L Y Y Y M   ",
"  1 Y Y Y Y Y Y Y Y Y Y Y Y Y Y Y Y Y Y Y Y Y Y Y L Y Y Y L Y Z : n C F Y Y Y Y Y Y Y Y Y Y Y Y Y Y Y Y Y Y Y Y Y Y Y Y Y Y M   ",
"  1 Y Y Y Y Y Y D j.Y Y Y Y Y D p.W Y Y Y Y L L p.Y Y Y Y Y Y Z , C H Y Y L Y L 4.Y Y Y Y Y D x.Y Y Y Y Y Y L 1.Y Y Y Y Y Y M   ",
"  > H Y Y Y Y S v n Y Y Y Y F v n Y Y Y Y Y S v Z Y Y Y Y Y Y Z j G Y L Y Y S v Z Y Y Y Y S v n Y Y L Y Y A l S Y L Y Y Y Y M   ",
"7 1 Y Y Y Y Y H H H Y Y Y Y H F H Y L Y Y Y H F H Y Y Y Y Y Y m c Y Y Y Y Y H F Y Y Y Y Y Y H H Y Y Y Y Y H G Y Y Y Y Y Y Y M 7 ",
"q 9 9 9 9 9 9 9 9 9 9 9 9 9 9 9 9 9 9 9 9 9 9 9 9 9 9 9 9 9 9 7 7 8 9 9 9 9 9 9 9 9 9 9 9 9 9 9 9 9 9 9 9 9 9 9 9 9 9 9 9 9 9 9 "
};
