/* XPM */
static char *_e1d5a628d1346de968144c3971edf97rTuVo1oSWet7yyIZ[] = {
/* columns rows colors chars-per-pixel */
"64 64 160 2 ",
"   c None",
".  c gray23",
"X  c #4A4A17",
"o  c #4F4F19",
"O  c #53531B",
"+  c #65651D",
"@  c #4D4D23",
"#  c #65652D",
"$  c #696929",
"%  c #0F4F4F",
"&  c #005B5B",
"*  c #294D4D",
"=  c #2D5151",
"-  c #006161",
";  c #006969",
":  c #007575",
">  c #007C7C",
",  c #2D7777",
"<  c #2E7979",
"1  c #327D7D",
"2  c #3B7979",
"3  c #4A4A4A",
"4  c #51514C",
"5  c #575757",
"6  c #585854",
"7  c #5D5D5B",
"8  c #62625F",
"9  c #666666",
"0  c #6C6C6C",
"q  c #737373",
"w  c #7B7B7A",
"e  c #8E8E22",
"r  c #959522",
"t  c #95953F",
"y  c #828245",
"u  c #8C8C4A",
"i  c #838354",
"p  c #888859",
"a  c #929254",
"s  c #81817F",
"d  c #008484",
"f  c #008D8D",
"g  c #0C8E8E",
"h  c #128989",
"j  c #009393",
"k  c #0F9292",
"l  c #009C9C",
"z  c #0C9B9B",
"x  c #129494",
"c  c #199797",
"v  c #139C9C",
"b  c #1E9C9C",
"n  c #01A4A4",
"m  c #0CA3A3",
"M  c #05A9A9",
"N  c #0BABAB",
"B  c #15A5A5",
"V  c #15ADAD",
"C  c #1BADAD",
"Z  c #1DB1B1",
"A  c #21AFAF",
"S  c #2AAFAF",
"D  c #3DAFAF",
"F  c #23B3B3",
"G  c #2BB3B3",
"H  c #26B8B8",
"J  c #2CBABA",
"K  c #35B4B4",
"L  c #34BCBC",
"P  c #3BBDBD",
"I  c #408F8F",
"U  c #5E9494",
"Y  c #43A5A5",
"T  c #45ABAB",
"R  c #54A8A8",
"E  c #45B3B3",
"W  c #45BCBC",
"Q  c #4ABBBB",
"!  c #5ABDBD",
"~  c #77A2A2",
"^  c #62BCBC",
"/  c #43C1C1",
"(  c #4BC3C3",
")  c #53C3C3",
"_  c #5CC6C6",
"`  c #62C7C7",
"'  c #6BC0C0",
"]  c #65C8C8",
"[  c #6BC9C9",
"{  c #74C4C4",
"}  c #70CACA",
"|  c #72CACA",
" . c #77CBCB",
".. c #76CBCB",
"X. c #75CBCB",
"o. c #75CBCB",
"O. c #7ACDCD",
"+. c #7CCECE",
"@. c #7FCFCF",
"#. c #7BCDCD",
"$. c #71D0D0",
"%. c #78D3D3",
"&. c #808080",
"*. c #8E8E8E",
"=. c #939393",
"-. c #9B9B9B",
";. c #AEAEAE",
":. c gray71",
">. c #BCBCBC",
",. c #80CFCF",
"<. c #80CDCD",
"1. c #81D0D0",
"2. c #83D1D1",
"3. c #85D2D2",
"4. c #84D7D7",
"5. c #84D5D5",
"6. c #85D3D3",
"7. c #88D3D3",
"8. c #8AD5D5",
"9. c #89D4D4",
"0. c #8DD6D6",
"q. c #8ED7D7",
"w. c #8CD5D5",
"e. c #8BD5D5",
"r. c #93D3D3",
"t. c #93D9D9",
"y. c #91D8D8",
"u. c #95DADA",
"i. c #96DADA",
"p. c #93D9D9",
"a. c #9ADCDC",
"s. c #9FDFDF",
"d. c #9EDEDE",
"f. c #9DDEDE",
"g. c #9EDEDE",
"h. c #A8DCDC",
"j. c #A1E0E0",
"k. c #A3E0E0",
"l. c #A4E1E1",
"z. c #A6E2E2",
"x. c #A5E2E2",
"c. c #A3E1E1",
"v. c #A9E3E3",
"b. c #AAE4E4",
"n. c #ABE4E4",
"m. c #AFE6E6",
"M. c #ADE5E5",
"N. c #ACE5E5",
"B. c #B0E6E6",
"V. c #B1E7E7",
"C. c #B2E7E7",
"Z. c #B1E6E6",
"A. c #B3E8E8",
"S. c #B5E8E8",
"D. c #B7E9E9",
"F. c #B5E8E8",
"G. c #B9EAEA",
"H. c #BBEBEB",
"J. c #BBEBEB",
"K. c #C3C3C3",
/* pixels */
". . . . . . . . . . . . . . . . . . . . . .                                         . . . . . . . . . . . . . . . . . . . . . . ",
": : : : : : : : : : : : : : : : : : : : : :                                         : : : : : : : : : ; : : : : : : : : : : : : ",
"h d d > > d g c > d d > d d b d d > d d > >                                         > d > d d d d d c g > d d d > h x d d d > d ",
"j j j j j d > f j j j j d : f j j j j f f d                                         d j j j j j f d > j j j j f d > j j j j j d ",
"n n M M n f f l M M n n j f j M M M n j f f                                         f M n n n n l f f n n n n n f f l n n n n j ",
"& & & & & & & & & & & & & & & & ; j j f j f                                         x F F F F F > & & & & & & & & & & & & & & & ",
"d d > > > > : : : : : : : > > : ; f f f f f                                         x F F F F P S j z B B B V C S F G W ) _ _ ` ",
"d d > > : : : : ; : : : > > > : ; f > v z j                                         x F C 4.A P G N V F F F J J P ( ` [ o.e.p.h.",
"d > > : : : : : : : : > > > > > ; f d > f j                                         x N j m F P L V F H H H P / ( _ o. .,.u.s.x.",
"> > : : : : : : : > > > > > > > ; j f j l l                                         x Z V A F P P Z H Z J P ( ) | | 2.u.h.s.V.F.",
"> : : : : : : : : : > > > d d > ; f j l M n                                         x F F F A P P F H H P / ( ) o. .8.p.s.c.A.H.",
": > : : : : : : > > > > d d d d ; f l M Z m                                         x F F F F P P H P L ( ( | o.3.y.s.z.A.A.H.A.",
": : : : : : : : : > > > d d f d ; n N F F n                                         x F F F F P P H L ( _ _ o.+.0.a.s.z.A.H.m.z.",
": : : : : > > > > d d d d d f f ; m Z Z M l                                         x F F F A P ( P ( ( [  .8.2.s.c.V.H.H.m.c.u.",
": : : : : > > > d > d d d f f f ; A Z n V z                                         x F F F F P ( ( _ [  .y.u.f.v.V.H.H.v.c.c.e.",
": : : > > > > > d d f d f j l j ; C n _ ( m                                         x F C 4.F P ( ( [ X.%.2.f.h.m.F.A.v.z.0.+.] ",
": : > > > > > d d f f f j l l j ; l l j C m                                         x N j l A P _ [ +.2.s.s.m.v.H.H.F.h.p.%. .| ",
": : > > > > d d d f f f f l l l ; N V C F m                                         x C C F F P _ %.0.e.s.h.A.H.H.c.u.0.O.[ _ ( ",
"> > > > d d d d f f j l l n n n ; A F F F m                                         x F F F F P [ 4.f.h.F.V.H.m.v.v.p.,.[ _ ) ( ",
": > > > d d d f f j l l n n n l ; A F F F m                                         x F F F A P $.u.c.c.V.H.H.v.s.3.%.` ` ( ( J ",
"> > d f d d f j f j n n n n C A ; A F F F m                                         x F F F F P $.s.v.m.H.A.v.8.2.%.[ ) ( P P H ",
"> d > d f f f j l l l n N V A C ; A A F F m                                         x F A F F P 4.V.F.H.V.s.z.p.O.[ _ ( W H H F ",
"> d d d f j j l n n n M V F F A ; A F F F m                                         x F F F F _ v.F.H.m.V.0.0.| _ ( ( P J F F F ",
"d f f f j j l l n M N Z F F H S & A V _ ( m                                         x F A 4.F X.F.H.H.c.s.3.O._ ` ( ( J H H Z Z ",
"d d f f j l l n n n Z F F H L G & C l j Z m                                         x N j n F %.H.c.s.y.%.[ ] ( ( H H H Z F N M ",
"d j j l l n n n V F F F F L ( P & F V C F m                                         x C V F F %.A.v.f.O. ._ _ ( P L F H Z N M M ",
"f j j j l n M N V F F H P / ) Q & A F F F m                                         x F F A F %.V.y.2.] | ( ( J L H F F V n M n ",
"f l l n n M M Z F F L H ( ( [ ! = 0 q q q w                                         w 0 q q 0 ~ u.%.` ) ) / J F H F V M M n l l ",
"j n l n M V Z F H Z P / _ ` | ^ * 9 9 9 9 w                                         q 9 9 9 9 U [ ` [ ) ( P J F F F C n n n l j ",
"l l n M M F H F J L ( ( _ [  .{ * 9 9 9 9 q                                         q 9 9 9 9 U ` ( ( L P H H F Z M n n l l j j ",
"n n n Z Z F H J / ( _ ` $.e.s.r.* 8 $ r p &.                                        w a e # 9 U [ ) ( L F H F V V M n l l j j f ",
"n N N Z F H H L ( ( _ [ 4.p.f.w.* 7 @ O u -.                                        *.t @ @ 8 U ` / L F F F F n n n n l j j f f ",
"M V F H H J P ( ) [ X.e.u.h.D.h.* 6 o + i :.                                        :.y + X 7 U ) H F F F M M n l l l j j f f d ",
"Z Z H Z H ( ( _ ]  .4.u.V.C.H.a.* 7 4 7 &.>.                                        :.w 7 4 7 U ) H F F Z n M n n l j j f d d d ",
"Z H F P P ( ( [ +.e.a.h.M.H.M.r.* 9 9 w -.K.                                        >.-.q 9 9 U ) F F N M n l l l j f f d d d > ",
"H J L ( ) [ ` 2.3.u.v.H.H.F.F.r.* 7 0 *.*.;.                                        =.=.*.0 7 U ) Z V M M l l l j j f d d d d > ",
"H J P ) ) [ o.u.u.h.F.H.V.c.s.#.% , 1 1 1 I                                         2 1 1 1 < R ) N n n n l l f f d d d d > > > ",
"H ( ( [ ` 4.3.c.V.H.H.v.V.h.s.o.& A F F F m                                         h F F F F ) Q n n l j j j f f f d d d > > > ",
"/ ) [ X.O.f.m.V.F.H.V.v.s.3.3.' & A F F F m                                         h F F F F ( W n n l l j f f d d d > > > > > ",
"( _ [ %.y.s.s.H.F.v.x.s.8.4.O.! & F B _ ( m                                         h A A 4.Z ! W l l j j f d d d d > > > > : : ",
"_ X.e.f.c.F.H.H.v.m.s.u.e.O.X.Q & C l j Z m                                         h N j n F ) W l j j f f f d d > > > > : > : ",
"X.e.e.m.v.H.C.m.s.f.+.e.o._ ( E & A V C F m                                         h Z V Z F ! E j j f d d d > > > > > : : : : ",
"4.z.c.m.H.H.v.z.s.f.3.O.[ _ ( K & A F F F m                                         h F F F Z ! E f f d d d d > > > > : : : : : ",
"0.z.V.H.V.m.s.s.3.+.O.[ ( / P F & A F F F m                                         h F F F F ) E f f d d d > > > > : : : : : : ",
"c.H.H.m.z.c.p.p.+.| _ ) W L G C & A F F F m                                         h F F F F ) E d d d > > > > : : : : : : : : ",
"m.H.F.A.c.s.0.@.%.[ ( ( / L F A & A A F F m                                         h F F F Z ! T d d d > > > > > : : : : : : : ",
"H.A.c.s.e.p. .[ ) ( P L F H F A & A F F F m                                         h F F F A ( T d > > > > : : : : : : > : : > ",
"v.V.s.s.2.+.[ [ ( ( P H H Z F A & A V _ ( m                                         h F A 4.F ! T > > > > : : : : : : : : : > > ",
"z.s.3.2.%.X.( ( P P H Z H F V M & C l j Z m                                         h F B M V W T > > > > : : : : : > : : > d > ",
"s.p.e.O.` _ ( / H H H F Z V M l & A C C F m                                         h F F N n E T > : : : : : : : : : > > > d d ",
"3.e.O.| ( ( / P H H H F C n n l & A F F F m                                         h F N l j E T > > : : : : : : : : > > d d d ",
"+.X._ ) ( L H Z Z Z Z N M n n j & A F F F m                                         h N n j f E Y : : : : : : > : > > > d d d f ",
"X.O.) ( L P H H F Z V M n l l j & A F A F m                                         d l j f f T Y : : : : : : : > > > d d d f f ",
"_ ( / P H H Z H Z N M l l l j f & A F F F m                                         > j j f j E Y : : : : : : > > d d d d f j j ",
") ( L J Z Z Z Z N N n l l j j f & A F F F m                                         : j j f j T Y : : : : : > > > d d d f f f j ",
"P / H H H H Z V n n l l j j f d & A V _ ( m                                         : d d B f E Y : : : : > > d d d f d j j l l ",
"H L F F Z V N n l l j l f f f d & V n l C m                                         : d > d j E Y : : : > d > d d f f j j l l l ",
"_ ) ) ) ) ) W W Q Q E E E E E v - A C C F m                                         : j j j n W ^ T T T T T T T T E E E Q Q Q W ",
"W W W W W W W W W W W W W Q P F v F F A F m                                         : j j n N K Q Q W W ( W W W W W W Q W W / W ",
"F F F F F F F F F F F F F F F F F F F F F m                                         : j n V F F F F F F F F F F F F F F F F F F ",
"F F F F F m 4.L F F F F F A 2.F F F F F F m                                         > n V F F F F A 5.F F F F F B p.G F F F F F ",
"F F F F V j j F F F F F M j n F F F F F F m                                         d C F F F F N j m F F F F N j l F F F F F M ",
"F F F F F V C F F F F F Z V F F F F F F F z                                         h F F F F F Z V Z F F F F Z V Z F F F F F C ",
"5 5 5 5 5 5 5 5 5 5 5 5 5 5 6 6 5 5 5 7 5 3                                         3 4 5 5 5 5 5 5 5 5 5 5 5 7 5 5 5 5 5 5 5 5 "
};
