/* XPM */
static char *b101de23482d47d7aa821f9585a9f247eSmRJm6ioM8MHnkL[] = {
/* columns rows colors chars-per-pixel */
"64 64 163 2 ",
"   c black",
".  c #FF1AFF",
"X  c #E81BE8",
"o  c #522552",
"O  c #392639",
"+  c #3B263B",
"@  c #912191",
"#  c #F91FF9",
"$  c #D243D2",
"%  c #CD46CD",
"&  c #D73AD7",
"*  c #C032C0",
"=  c #2E0E2E",
"-  c #160816",
";  c #170817",
":  c #FF1AFF",
">  c #FF1AFF",
",  c #FF1AFF",
"<  c #FF1AFF",
"1  c #FF1AFF",
"2  c #FF1AFF",
"3  c #FF1AFF",
"4  c #FF1AFF",
"5  c #FF1AFF",
"6  c None",
"7  c #E81BE8",
"8  c #E81BE8",
"9  c #522552",
"0  c #522552",
"q  c #392639",
"w  c #392639",
"e  c #3B263B",
"r  c #3B263B",
"t  c #3B263B",
"y  c #3B263B",
"u  c #3B263B",
"i  c #552455",
"p  c #EA1BEA",
"a  c #3B263B",
"s  c #2D272D",
"d  c #A420A4",
"f  c #FD1AFD",
"g  c #F31BF3",
"h  c #F91FF9",
"j  c #F91FF9",
"k  c #D243D2",
"l  c #D243D2",
"z  c #CD46CD",
"x  c #CD46CD",
"c  c #D73AD7",
"v  c #D73AD7",
"b  c #C032C0",
"n  c #C032C0",
"m  c #2E0E2E",
"M  c #2E0E2E",
"N  c #160816",
"B  c #160816",
"V  c #170817",
"C  c #170817",
"Z  c #FF1AFF",
"A  c #FC1AFC",
"S  c #E718E7",
"D  c #E418E4",
"F  c #4A0C4A",
"G  c #310A31",
"H  c #320A32",
"J  c #310831",
"K  c #130813",
"L  c #150815",
"P  c #180B18",
"I  c #2D222D",
"U  c #312531",
"Y  c #140514",
"T  c #2E202E",
"R  c #CDCACD",
"E  c #E7E6E7",
"W  c #483C48",
"Q  c #D0CDD0",
"!  c #E7E5E7",
"~  c #473B47",
"^  c #312431",
"/  c #130413",
"(  c #E318E3",
")  c #E518E5",
"_  c #FE1AFE",
"`  c #E918E9",
"'  c #E416E4",
"]  c #FF19FF",
"[  c #320D32",
"{  c #E22FE2",
"}  c #FF31FF",
"|  c #FF1DFF",
" . c #FE31FD",
".. c #150615",
"X. c #312131",
"o. c #DAC2D7",
"O. c #F7C4F5",
"+. c #FE2EFE",
"@. c #F5C4F3",
"#. c #FE30FD",
"$. c #302330",
"%. c #D4D2D1",
"&. c #F0D7ED",
"*. c #F741F7",
"=. c #EED7EC",
"-. c #EFD5ED",
";. c #FD33FD",
":. c #FF18FF",
">. c #160716",
",. c #2C1D2C",
"<. c #B7A2B6",
"1. c #CEB5CD",
"2. c #CDA0CD",
"3. c #CCB5CC",
"4. c #D2A5D2",
"5. c #F92CF9",
"6. c #2C1C2C",
"7. c #B29BB2",
"8. c #C8B0C8",
"9. c #C7B0C7",
"0. c #C6B0C6",
"q. c #CD9DCD",
"w. c #F82BF8",
"e. c #B29CB2",
"r. c #C8B1C8",
"t. c #C6B1C6",
"y. c #CD9ECD",
"u. c #F82CF8",
"i. c #2C1A2C",
"p. c #B88CB8",
"a. c #CF9FCF",
"s. c #CE9DCE",
"d. c #D38ED3",
"f. c #F929F9",
"g. c #320C32",
"h. c #DE27DE",
"j. c #FA2CFA",
"k. c #FE1CFE",
"l. c #E417E4",
"z. c #E81BE8",
"x. c #EB1BEB",
"c. c #522552",
"v. c #512551",
"b. c #662366",
"n. c #392639",
"m. c #382638",
"M. c #3B263B",
"N. c #3A263A",
"B. c #360D36",
"V. c #190B19",
"C. c #EC1BEC",
"Z. c #E91BE9",
"A. c #4E214E",
"S. c #352335",
"D. c #F91FF9",
"F. c #D243D2",
"G. c #CD46CD",
"H. c #D73AD7",
"J. c #C032C0",
"K. c #2E0E2E",
"L. c #160816",
"P. c #170817",
"I. c white",
/* pixels */
"                                                                                                                                ",
"                                                                                                                                ",
"                                                                                                                                ",
"                                                                                                                                ",
"                                                                                                                                ",
"                                                                                                                                ",
"                                                                                                                                ",
"                                                                                                                                ",
"                                                                                                                                ",
"                                                                                                                                ",
"                                                                                                                                ",
"                                                                                                                                ",
"                                                                                                                                ",
"                                                                                                                                ",
"                                            . : > Z Z Z Z Z Z Z Z Z Z Z Z Z Z > : .                                             ",
"                                            . : > A S D D D D D D D D D D S A > : .                                             ",
"                                            . : > S F G H H J J J J H H G F S > : .                                             ",
"                                            . : > D H L Y T R E E R T Y L H D > : .                                             ",
"                                            . : > D H P T W Q ! ! Q W T P H D > : .                                             ",
"                                            . : > D J I R Q ~ ^ ^ ~ Q R I J D > : .                                             ",
"                                            . : > D J U E ! ^ / / ^ ! E U J D > : .                                             ",
"                                            . : > D J U E ! ^ / / ^ ! E U J D > : .                                             ",
"                                            . : > D J I R Q ~ ^ ^ ~ Q R I J D > : .                                             ",
"                                            . : > D H P T W Q ! ! Q W T P H D > : .                                             ",
"                                            . : > D H L Y T R E E R T Y L H D > : .                                             ",
"                                            . : > D G K L P I U U I P L K G D > : .                                             ",
"                            . . . . . . . . . , > A S ( D D ) ) ) ) D D ( S A > , . . . . . . . . .                             ",
"                            . < 1 : : : : : , 2 3 Z Z Z Z _ ` ) ) ` _ Z Z Z Z 3 2 , : : : : : 1 < .                             ",
"                            . 1 4 5 > > > > > 3 6 Z Z Z Z S F G G F S Z Z Z Z 6 3 > > > > > 5 4 1 .                             ",
"                            . : 5 Z Z Z Z Z Z Z Z Z Z Z Z ( G K K G ( Z Z Z Z Z Z Z Z Z Z Z Z 5 : .                             ",
"                            . : > Z Z Z Z Z Z Z Z Z Z Z Z D H L L H ' ] Z Z ] ] Z Z Z Z Z Z Z > : .                             ",
"                            . : > Z Z Z Z Z Z Z Z Z Z Z Z D H L L [ { } | |  . .| Z Z Z Z Z Z > : .                             ",
"                            . : > Z Z Z Z Z Z Z Z Z Z Z Z D H L ..X.o.O.+.+.@.@.#.] Z Z Z Z Z > : .                             ",
"                            . : > Z Z Z Z Z Z Z Z Z Z Z Z D H L ..$.%.&.*.*.=.-.;.:.Z Z Z Z Z > : .                             ",
"                            . : > Z Z Z Z Z Z Z Z Z Z Z Z D H L >.,.<.1.2.2.3.4.5.] Z Z Z Z Z > : .                             ",
"                            . : > Z Z Z Z Z Z Z Z Z Z Z Z D H L >.6.7.8.9.9.0.q.w.] Z Z Z Z Z > : .                             ",
"                            . : > Z Z Z Z Z Z Z Z Z Z Z Z D H L >.6.e.r.9.9.t.y.u.] Z Z Z Z Z > : .                             ",
"                            . : > Z Z Z Z Z Z Z Z Z Z Z Z D H L >.i.p.a.s.s.y.d.f.] Z Z Z Z Z > : .                             ",
"                            . : > Z Z Z Z Z Z Z Z Z Z Z Z D H L L g.h.j.u.u.u.f.k.Z Z Z Z Z Z > : .                             ",
"                            . : > Z Z Z Z Z Z Z Z Z Z Z Z D H L L H l.] ] ] ] ] Z Z Z Z Z Z Z > : .                             ",
"                            . : > Z Z Z Z Z Z Z Z Z Z Z Z D H L L H D Z Z Z Z Z Z Z Z Z Z Z Z > : .                             ",
"                            . : > Z Z Z Z Z Z Z Z Z Z Z Z D H L L H D Z Z Z Z Z Z Z Z Z Z Z Z > : .                             ",
"                            . : > Z Z Z Z Z Z Z Z Z Z Z Z D H L L H D Z Z Z Z Z Z Z Z Z Z Z Z > : .                             ",
"                            X 7 8 z.z.z.z.z.z.x.A Z Z Z Z D H L L H D Z Z Z Z A x.z.z.z.z.z.z.8 7 X                             ",
"                            o 9 0 c.c.c.c.c.v.b.x.Z Z Z Z D H L L H D Z Z Z Z x.b.v.c.c.c.c.c.0 9 o                             ",
"                            O q w n.n.n.n.n.m.v.z.Z Z Z Z D H L L H D Z Z Z Z z.v.m.n.n.n.n.n.w q O                             ",
"                            + a t e e e e e s d f Z Z Z Z D H L L H D Z Z Z Z f d s e e e e e t a +                             ",
"                            + + + + + + + + @ g 8 z.z.x._ D B.V.V.B.D _ x.z.z.8 g @ + + + + + + + +                             ",
"                                            o 9 0 c.v.b.C.Z.A.S.S.A.Z.C.b.v.c.0 9 o                                             ",
"                                            O q w n.m.v.Z.Z.c.N.N.c.Z.Z.v.m.n.w q O                                             ",
"                                            O q w n.m.v.Z.Z.v.m.m.v.Z.Z.v.m.n.w q O                                             ",
"                                            o 9 0 c.v.b.C.C.b.v.v.b.C.C.b.v.c.0 9 o                                             ",
"                                            X 7 8 z.z.x.A A x.z.z.x.A A x.z.z.8 7 X                                             ",
"                                            . : > Z Z Z Z Z Z Z Z Z Z Z Z Z Z > : .                                             ",
"                                            . : > Z Z Z Z Z Z Z Z Z Z Z Z Z Z > : .                                             ",
"                                            . : > Z Z Z Z Z Z Z Z Z Z Z Z Z Z > : .                                             ",
"                                            . : > Z Z Z Z Z Z Z Z Z Z Z Z Z Z > : .                                             ",
"                                            . : > Z Z Z Z Z Z Z Z Z Z Z Z Z Z > : .                                             ",
"                                            . : > Z Z Z Z Z Z Z Z Z Z Z Z Z Z > : .                                             ",
"                                            # h j D.D.D.D.D.D.D.D.D.D.D.D.D.D.j h #                                             ",
"                                            & c v H.H.H.H.H.H.H.H.H.H.H.H.H.H.v c &                                             ",
"                                            * b n J.J.J.J.J.J.J.J.J.J.J.J.J.J.n b *                                             ",
"                                            = m M K.K.K.K.K.K.K.K.K.K.K.K.K.K.M m =                                             ",
"                                            - N B L.L.L.L.L.L.L.L.L.L.L.L.L.L.B N -                                             ",
};
