/* XPM */
static char *_c073c8bb1634e10accd2360a67c26213KK0EZY5Tbgvnmlz[] = {
/* columns rows colors chars-per-pixel */
"64 64 114 2 ",
"   c None",
".  c #000001",
"X  c #080708",
"o  c #0D0C0D",
"O  c #110E07",
"+  c #1D160C",
"@  c #151415",
"#  c #181718",
"$  c #1D1C1D",
"%  c #241A0E",
"&  c #281C0F",
"*  c #2B230F",
"=  c #2F2613",
"-  c #2E291F",
";  c #322113",
":  c #392516",
">  c #342913",
",  c #3A2D15",
"<  c #3D2C18",
"1  c #3E3017",
"2  c #3E3118",
"3  c #242424",
"4  c #2C2C2C",
"5  c #322B20",
"6  c #3E3124",
"7  c #36332C",
"8  c #343434",
"9  c #3B3B3B",
"0  c #402F17",
"q  c #432D18",
"w  c #42331A",
"e  c #4A361C",
"r  c #4D391D",
"t  c #543D1E",
"y  c #443521",
"u  c #563E21",
"i  c #593E21",
"p  c #503B2B",
"a  c #5C4121",
"s  c #54542D",
"d  c #4D483C",
"f  c #644524",
"g  c #684725",
"h  c #664826",
"j  c #6B4926",
"k  c #664628",
"l  c #6E4A28",
"z  c #744E2A",
"x  c #7C522E",
"c  c #6A503A",
"v  c #715037",
"b  c #7C5332",
"n  c #737333",
"m  c #523847",
"M  c #453156",
"N  c #444444",
"B  c #4C4C4C",
"V  c #584E41",
"C  c #4D544D",
"Z  c #595241",
"A  c gray33",
"S  c #5A5A5A",
"D  c #757066",
"F  c #797267",
"G  c gray50",
"H  c #81542F",
"J  c #845631",
"K  c #855832",
"L  c #8B5A34",
"P  c #8B5E3F",
"I  c #925E36",
"U  c #945F38",
"Y  c #966139",
"T  c #9C643B",
"R  c #A2673E",
"E  c #A5693F",
"W  c #946749",
"Q  c #A56A41",
"!  c #AB6C42",
"~  c #B06F44",
"^  c #AD7144",
"/  c #B47145",
"(  c #BB7649",
")  c #BE7A4A",
"_  c #BF7D52",
"`  c #C37B4C",
"'  c #CB7F4F",
"]  c #B88565",
"[  c #CC804F",
"{  c #CC8150",
"}  c #D38453",
"|  c #DA8755",
" . c #DD8A56",
".. c #E08C57",
"X. c #E48D59",
"o. c #E5905B",
"O. c #EB935C",
"+. c #F2965E",
"@. c #D48C60",
"#. c #DA9266",
"$. c #E29260",
"%. c #EA9662",
"&. c #EC9A69",
"*. c #F49B66",
"=. c #F79D69",
"-. c #FEA36B",
";. c #F0A070",
":. c #FFA772",
">. c #FEA975",
",. c #FFAE7D",
"<. c #868686",
"1. c #AEA29A",
"2. c #B1B1B1",
"3. c #FFB383",
/* pixels */
"                                                                                                                                ",
"                                                                                                                                ",
"                                                                                                                                ",
"                                                                                                                                ",
"                                                                                                                                ",
"                                                                                                                                ",
"                                                                                                                                ",
"                                                                                                                                ",
"                                                                                                                                ",
"                                                                                                                                ",
"                                                                                                                                ",
"                                                                                                                                ",
"                                                                                                                                ",
"                                                                                                                                ",
"                                                                                                                                ",
"                                                                                                                                ",
"                                                                                                                                ",
"                                                                                                                                ",
"                                                            N 9 9 9 9                                                           ",
"                                                          B N 4 3 8 B N                                                         ",
"                                                        B B 9 3 3 3 9 B                                                         ",
"                                                        9 B 8 3 3 3 8 B                                                         ",
"                                                        9 B B S S S B B 9                                                       ",
"                                                        3 7 s n d n s 3 4                                                       ",
"                                                      @ . t C m x M V e . @                                                     ",
"                                                      . . I =.W P ( *.x . .                                                     ",
"                                                        . q ~ 1.<.b ~ & .                                                       ",
"                                                    ..T ' . V 8 B c h . [ ` }                                                   ",
"                                                | / T Y R < $ 8 8 v ; e Y T Y ..(                                               ",
"                                              T ' } E E R L e $ y ] #.f L ^ ^ | ) H                                             ",
"                                            t z ~ ! } ` I ` O.J &.;.#.%.E / ` E T j t                                           ",
"                                            t f z K T L U ( &.H Q | #.O.~ K T H z u t                                           ",
"                                            e a g g l g a T $.J l } @.` h z g g h r e                                           ",
"                                              w w > , w , t x k y k x g < e e e r 2                                             ",
"                                                H h f g a z ! K z ~ U L a z q >                                                 ",
"                                                z Y H I H z ~ E x / b x x x ,                                                   ",
"                                                  E T K z h z t a E h a a r ,                                                   ",
"                                                  H ( E x t t t , x h z f e ,                                                   ",
"                                                  % > : & + & F D ; & + + O                                                     ",
"                                                  . . . . . . 2.W . . . . .                                                     ",
"                                                  ' T H R E L h Z Y ( W l a *                                                   ",
"                                                ' +.+.O.( ` R f k W ! E z l 1                                                   ",
"                                                 .+.+.{ ( ) R a f T ! E L z 1 >                                                 ",
"                                              [ +.+.+.` ) ) I , < E ! E T x w >                                                 ",
"                                              [ +.+.| ) ) Y t > w i ~ ~ E J t w                                                 ",
"                                              ^ ^ Q T K z i > w r y j b L U f 2                                                 ",
"                                              / ( .. .! Q g w > w a T } +.:.z 1                                                 ",
"                                              ! ' -.../ ! l >     a E } *.3.i ; ,                                               ",
"                                            ! ` *.>.( E Q g >     u l R =.3.T a w                                               ",
"                                            ~ X.>.o.J L I u         H ` O.,._ T x                                               ",
"                                            ( +.,.) f z f 2         ! T O.,.$.L R z                                             ",
"                                            ( +.,.^ h g w w         z b O.-.&.z x z                                             ",
"                                          R / O.:.x z J w w         h ! | O.o.i a e                                             ",
"                                          z L ` ` a x x a           z I ! ^ { t > 2                                             ",
"                                          t h b L i t e e             a h z Y L y y                                             ",
"                                          3 5 8 p 5 - >               3 4 8 o . .                                               ",
"                                          B p o . @ 9                   4 9 o . .                                               ",
"                                          A N o . @ 8                   4 8 @ . #                                               ",
"                                            9 o . @ 4                   3 8 4 . .                                               ",
"                                            N # . @                       4 8 @ X X                                             ",
"                                            8 # . 4 7                     4 A 3 . .                                             ",
"                                          4 $ . . $ 3                     B B N $ X $                                           ",
"                                        # @ 3 @ . .                       $ $ S S 4 . o                                         ",
"                                        X . . . .                           . 8 9 4 3 o                                         "
};
