/* XPM */
static char *d5f31a42ded24362f95f3086260cb2c1LGkcrBgDxdCYhdFf[] = {
/* columns rows colors chars-per-pixel */
"64 64 125 2 ",
"   c None",
".  c #010001",
"X  c #0D0A06",
"o  c #0B0B0C",
"O  c #110E07",
"+  c #150F08",
"@  c #1A140A",
"#  c #141414",
"$  c #1B1B1B",
"%  c #241C0E",
"&  c #2A1E11",
"*  c #2B230F",
"=  c #2F2F0A",
"-  c #32320F",
";  c #2D2311",
":  c #29251C",
">  c #312712",
",  c #3B2616",
"<  c #362A13",
"1  c #3A2E16",
"2  c #3D2718",
"3  c #342C1F",
"4  c #3E3116",
"5  c #3E3118",
"6  c #1F1F20",
"7  c #242424",
"8  c #292620",
"9  c #2C2C2C",
"0  c #332D20",
"q  c #3B3024",
"w  c #343434",
"e  c gray23",
"r  c #402818",
"t  c #4A2E1D",
"y  c #423117",
"u  c #44341A",
"i  c #4A371C",
"p  c #4C391D",
"a  c #523C1E",
"s  c #4E392A",
"d  c #563D20",
"f  c #5A3E21",
"g  c #354E3C",
"h  c #665A0D",
"j  c #685713",
"k  c #5C4222",
"l  c #44403B",
"z  c #624424",
"x  c #684726",
"c  c #674825",
"v  c #6D4A27",
"b  c #6F4B28",
"n  c #744D2A",
"m  c #784F2B",
"M  c #76502C",
"N  c #7B522D",
"B  c #7E5031",
"V  c #393662",
"C  c #403C46",
"Z  c #2E5851",
"A  c #434343",
"S  c #4C4C4C",
"D  c #515151",
"F  c #5A5A5A",
"G  c #605643",
"H  c #765541",
"J  c #675F52",
"K  c #646464",
"L  c gray46",
"P  c #7C7C7C",
"I  c #954E09",
"U  c #804911",
"Y  c #884D16",
"T  c #A85507",
"R  c #82532F",
"E  c #855631",
"W  c #8B5A34",
"Q  c #925D36",
"!  c #966039",
"~  c #9C633B",
"^  c #A2673E",
"/  c #A5683F",
"(  c #A66940",
")  c #AB6C42",
"_  c #B16F45",
"`  c #B47246",
"'  c #BB7748",
"]  c #BE7A4A",
"[  c #C47B4C",
"{  c #CA7E4F",
"}  c #BE8155",
"|  c #CC804F",
" . c #CD8150",
".. c #C1845B",
"X. c #CA895F",
"o. c #D38452",
"O. c #D98755",
"+. c #DC8956",
"@. c #D2895B",
"#. c #DE8D5B",
"$. c #E08B57",
"%. c #E38C58",
"&. c #EC935D",
"*. c #F3975F",
"=. c #F5995F",
"-. c #D69164",
";. c #DB9366",
":. c #D1956D",
">. c #DA9568",
",. c #E99563",
"<. c #ED9966",
"1. c #F49A63",
"2. c #FA9B62",
"3. c #FFA167",
"4. c #F5A16C",
"5. c #FAA26E",
"6. c #FEA772",
"7. c #F3AA7D",
"8. c #FFAC79",
"9. c gray52",
"0. c gray62",
"q. c #B6B6B6",
"w. c #F7AF85",
"e. c #FFB386",
"r. c #DFDFDF",
/* pixels */
"                                                                                                                                ",
"                                                                                                                                ",
"                                                                                                                                ",
"                                                                                                                                ",
"                                                                                                                                ",
"                                                                                                                                ",
"                                                                                                                                ",
"                                                                                                                                ",
"                                                                                                                                ",
"                                                                                                                                ",
"                                                                                                                                ",
"                                                                                                                                ",
"                                                                                                                                ",
"                                                                                                                                ",
"                                                                                                                                ",
"                                                                e e e                                                           ",
"                                                            e A w 7 w A e                                                       ",
"                                                          e S w 7 7 7 w A                                                       ",
"                                                          A D w w e w w S                                                       ",
"                                                          A F K L L L K F A                                                     ",
"                                                          S = % % % % % - S                                                     ",
"                                                        w X h Z C N V g j o w                                                   ",
"                                                        . . _ -.@.e.X.@.) . .                                                   ",
"                                                          . f <.+.^ #.,.2 .                                                     ",
"                                                            v ,. .:.@.#.                                                        ",
"                                                            O ~ 4.>.4.W X                                                       ",
"                                                      { +.) . X k E d X . _ '                                                   ",
"                                                  ,.6.2.*.[ i 9 6 * 9 6 f { 1.1.o.                                              ",
"                                                6.&.6.2.2.1.{ n z ~ f N { 2.=.2.2.2.                                            ",
"                                              5.%.{ %.%.+.%.O.o.[ { { o.+.&.O.$.+.2.=.                                          ",
"                                            1.%.` Q ) ` [ O.O.{ { ' | { O.o.[ ` [ o.2.                                          ",
"                                          5.%.' W z z E _ [ $./ / { ) ` %.' ) m Q %.2.                                          ",
"                                        6.O.` W z i u z n M n N ( / ( E B n M k Q / &.O.                                        ",
"                                      <.[ b u i p i   y W ~ E R ( ! ) W E Q R p k ' 2.*.                                        ",
"                                      o.6.#.m u       < f N c n ( ) ( n v n a 1 i Q o.%.                                        ",
"                                      o.#.[ z 4       * < k n a m k n f v a > * 4 z o.$.)                                       ",
"                                      { 5.o./ k       ; O @ a u ^ a 4 u p @ O * > a ) &.)                                       ",
"                                      ] E c ) )       X . . . . r.q.. . . . . 4 p ! 2.o.)                                       ",
"                                        a ' 1.} O.M { %.B ; ; ; G J ; ; ; y u f k ../ '                                         ",
"                                        N ` 4.! e S c ) %.` ^ ' R 4 E E N c z z ..7.w.{                                         ",
"                                          n $.{ K 0.s z ( @.` _ R 4 ( W m b v n | $.6.>.                                        ",
"                                                  9.P T f E Q Q R 4 N n v m R Q ) ` ,.                                          ",
"                                                  a U I Y i a k z < z v n R ! ! Q ~                                             ",
"                                                    a j I s a u < > p a z b n m N                                               ",
"                                                    Q n d d W b p a b Q Q / / Q n                                               ",
"                                                    ' ] ` ( W M k d W ^ _ { o._ N                                               ",
"                                                    ` | =.` ` E a a N ^ [ { o.[ )                                               ",
"                                                  ) ` &.3.` ' Q p < b Q { { O.[ / f                                             ",
"                                                  ` O.5.1.~ ) W p   f W  .{ o.{ _ z                                             ",
"                                                  { 1.6._ N ~ M <   v Q o.{  .{ ) c                                             ",
"                                                _ O.5.6.n b n i 1   b W _ [  . .' v                                             ",
"                                                / O.5.8.c N u 5     k ) ) ) [ Q N a                                             ",
"                                                ^ o.2.@.z E k 5     p R ( ( _ n v i                                             ",
"                                              M N / { W v E v d     k b Q ( ^ k v d                                             ",
"                                              a k M E v k u a       f N b ~ ~ k R N                                             ",
"                                                : 3 s q 0 : 1         + , s B , & 3                                             ",
"                                                S 9 . . e 7           # . . $ # $                                               ",
"                                                S 9 . . w w           # . . # 7 #                                               ",
"                                                e 9 . . 7             o # . $ 7                                                 ",
"                                                  w X . 9             . X . . #                                                 ",
"                                                9 9 . $ 9               o . o o                                                 ",
"                                              9 w . . $ #               . o 6 # #                                               ",
"                                            7 # $ $ X . .             7 X 7 7 7 7 o                                             ",
"                                              . . . . .               . . . . . . #                                             "
};
