/* XPM */
static char *_c59ed6e30604a25ac8f259a18542e701mfSSMUWpNut2iOf[] = {
/* columns rows colors chars-per-pixel */
"64 64 165 2 ",
"   c #2E2B22",
".  c #342D24",
"X  c #37332A",
"o  c #3B372D",
"O  c #3E392D",
"+  c #3E3932",
"@  c #423A2E",
"#  c #433D32",
"$  c #483F36",
"%  c #483F38",
"&  c #454236",
"*  c #4A4336",
"=  c #464239",
"-  c #4B453B",
";  c #4D493C",
":  c #514837",
">  c #50473E",
",  c #524B3D",
"<  c #57523F",
"1  c #58513F",
"2  c #4D4641",
"3  c #4E4B41",
"4  c #504740",
"5  c #534D43",
"6  c #584F45",
"7  c #564E49",
"8  c #584F48",
"9  c #565144",
"0  c #5A5345",
"q  c #5E5946",
"w  c #565249",
"e  c #5B554A",
"r  c #5E594C",
"t  c #5C5751",
"y  c #5F5A50",
"u  c #60574D",
"i  c #625B4D",
"p  c #605750",
"a  c #635D52",
"s  c #695F55",
"d  c #65614E",
"f  c #68614F",
"g  c #666153",
"h  c #6A6455",
"j  c #6E6956",
"k  c #666359",
"l  c #6B6659",
"z  c #6E695B",
"x  c #706756",
"c  c #716A57",
"v  c #706758",
"b  c #726C5D",
"n  c #76715E",
"m  c #78715F",
"M  c #706760",
"N  c #736E61",
"B  c #767163",
"V  c #7A7464",
"C  c #7E7866",
"Z  c #7B7669",
"A  c #7E796A",
"S  c #7F7B70",
"D  c #807B66",
"F  c #827C6C",
"G  c #837E71",
"H  c #86816E",
"J  c #89836F",
"K  c #868273",
"L  c #8A8474",
"P  c #8D8976",
"I  c #868478",
"U  c #8A8679",
"Y  c #8E8A7B",
"T  c #908977",
"R  c #928C7C",
"E  c #95917E",
"W  c #98917E",
"Q  c #8E8781",
"!  c #8E8B80",
"~  c #928D81",
"^  c #998F83",
"/  c #959182",
"(  c #9A9484",
")  c #9D9985",
"_  c #979589",
"`  c #9A968A",
"'  c #9E9A8C",
"]  c #A19C86",
"[  c #A29C8C",
"{  c #A39E91",
"}  c #A6A18E",
"|  c #A8A28F",
" . c #A5A193",
".. c #A9A491",
"X. c #AAA591",
"o. c #ABA492",
"O. c #ACA592",
"+. c #ABA595",
"@. c #AAA496",
"#. c #AEA797",
"$. c #AAA494",
"%. c #ABAA96",
"&. c #ACA996",
"*. c #ABA69A",
"=. c #AFA99B",
"-. c #AFAC9B",
";. c #AEAB9C",
":. c #AEAA9C",
">. c #B1AA97",
",. c #B1AB9B",
"<. c #B0AD9E",
"1. c #B2AF9E",
"2. c #B2AC9C",
"3. c #B1B09C",
"4. c #B5B29F",
"5. c #B4B09E",
"6. c #AFABA1",
"7. c #B2ACA0",
"8. c #B3AFA3",
"9. c #B5AFA1",
"0. c #B1ADA4",
"q. c #B2AEA2",
"w. c #B4B3A1",
"e. c #B6B3A0",
"r. c #B7B1A3",
"t. c #B5B2A3",
"y. c #B7B4A5",
"u. c #B6B4A7",
"i. c #B5B2A5",
"p. c #BDB7A7",
"a. c #B9B4A6",
"s. c #BBB8A7",
"d. c #BBB8A7",
"f. c #B6B4A8",
"g. c #B7B3A9",
"h. c #B8B4A8",
"j. c #BAB7A8",
"k. c #B8B4AB",
"l. c #BDB7AB",
"z. c #B9B6AD",
"x. c #BAB5AA",
"c. c #BAB8A9",
"v. c #BFBCAB",
"b. c #BBB9AD",
"n. c #BDB9AD",
"m. c #BCB8AF",
"M. c #BDBBAF",
"N. c #BCBAAE",
"B. c #BDB9AD",
"V. c #BAB5B1",
"C. c #BFBBB0",
"Z. c #BFBBB2",
"A. c #BFBDB0",
"S. c #BDB9B0",
"D. c #C0BAAC",
"F. c #C0BDAE",
"G. c #C3BDAF",
"H. c #C0BDAE",
"J. c #C0BCB0",
"K. c #C2BFB0",
"L. c #C1BFB3",
"P. c #C2BEB3",
"I. c #C2BEB5",
"U. c #C1BCB2",
"Y. c #C6C4B8",
/* pixels */
"7.G.,.,.r.l.l.z w J.l.l.n.G.y.z.Y.y.-.1.v.G.s.b r D.p.@.1.l.l.1.f.n.n.n.J.C.8.l h :.r.J.7.r.p...r.n.I.C.r.5.l.{ J.J.r.5.&.c.y.b.",
"A R F C R U Z 9 p 9.Y ~ @.' ( U ~ K E ) ( ' / r 5 @.R K G / [ R A / U I Y G @.r e  .R G I G R P K ~ S R U C V r :.' C F K K Y U ",
"N C D j h N G , a ..V V C P Y I V P V B F C U 0 0 [ E K F C K R U D D C L U F * 0  .D G N N F B R K z M j h l ; ..V b B C C K b ",
"h b h i h a Z r e ) L j V F V G F V V B B z l * e +.C C b b b D F h D F b F B * u / b b N G h V B F b N G z g 5 O.R h z h b b b ",
"y a g r w ; 9 * e [ b u Z b b z B C i g 5 5 y & 0 R f C h h u F B w r a l l r & > / h V a r u h 0 u 9 0 h B w * R h w N g Z N g ",
"- 5 r 5 9 w 5 e e h b 5 G h 9 3 w 0 h ; * 5 3 - i K h h j 9 h ; & ; ; - 5 9 - - u F B 9 e w 5 * # ; - 9 i r a 5 F g 9 g w w a r ",
"3  .w.@.*.l.l.n.7.@.a.z.n.a.*.o > r.G.i.6.7.$.:.h.1.r.1.J.z.:.z w 7.7.*.i.8.:.6.i.l.9.h.l.z.i.Z 5 7.@.+.:.w.*.b.l.l.i.n.l.n.*.' ",
"9 i.U K ( / { ` U E ' ~ G K R w s 9.( I ' ( ( ( G F [ U U { Y 9 h ,.' K / U / ( ~ ~ K ' ' / U 9 w J. ...v.R U ` Y [ ( ( [ [ { h ",
"0 9.~ G G G I S F A Z C F E R # r l./ Z C U Z F V b F P Y Y A 3 6 ,.I L R B B C R U Z K R P C 0 r r.' I [ ' G H F / G G A R V 0 ",
"b  .n j z Y C V F G Z U U D Z ; r h.C G B N B V C U U R C U G * * @.F B F Z h Z V V Y Z Z Y V 9 p [ Y A R G U L R C Z C I Z V h ",
"v +.Z B h K C R F G Z B D B N p e ' B B V A B B C Y G Y K F K , * ,.V b z M N N b b Y B Z B A a u / C V L B B P K B C V Y R b > ",
"s =.B l j g z U V b z z V L A 5 5 #.b n K V V L P P V N N b K i * [ b h z h B N j B b b h V B ; h T C G h b B F R K b b C N G * ",
"u ~ B B C h F V C L F j P b B 5 0  .C b H L H V P J C V F b i 9 : T P H B h b h b b B h D F B , u | [ z j b Z n C j B N j g l 5 ",
"0 [ j j b V n D D F j i a h b * u 2.D C F V h h b n F j j l e # 0 ,.F j b b b g h C i h B b D q 5 ( B r r g l F a i j g a g r 5 ",
"i F r ; b b d d j B B u 5 r h i u / h B g B g g u i b h B b 5 . 5 ' z g i i j g a g i B B B i 0 e R h r 9 g g h z 9 r e r w l 5 ",
"M p - 3 w 5 w w i 5 5 5 a 5 a i a a h i 9 5 5 w 8 0 h d 0 g a 5 r # ; 5 i 0 5 ; ; 3 w r 5 9 9 j e b e 5 5 w w q w * e g u e 0 0 ",
"z.n.1. .:.7.g.8.<.*.7.6.z.7.1.1.w.y.f.6.:.l.7.P y :.B.@.i.f.i.:.i.@.f.6.i.l.[ ( @.-.7.7.:.l.:.B.i.r.*.l.b.y.-.` 7.:.*.i.7.6.i.7.",
"U ` P [ ( Y U k 1.[ R L Y F / ( Y I U Y I / ' j r  ./ ( / U U I G I U U R R F V 5./ ( V ` ~ U ~ ~ / V G ' / C a [ K / U L Y A B ",
"F B R H R Y V , R U K Y F F R Z F R F b B V N - , >.C K U G B b B b N C B b b 5 ..C j z z B Z U M G b b b C G w +.n Y C B j h b ",
"P b F U N b V 9 Y b P L H B F K N B K K n h N 5 : [ V P C b j F z g h n F b h = R V V h i h g N z j H F a C F 3 ..V b B j h V K ",
"b c b F h w w r ` i i F g , i g Z F F D B g k * , [ V B g g a w y B h C b N r = H j h h a a N 0 5 g B B 0 b B - R F B j l a b r ",
"h h u 5 w 5 w r U @ ; h > 9 e , 5 9 5 i z 5 w 5 9 I 9 9 3 9 9 * = * , , 5 r 3 t  .g a w 5 5 b # & & ; r w j r w A e 5 5 r 5 ; * ",
"i #.l.7.n.g.8.n.B.:.*.l.@.@.[ [ :.<.l.n.l.{ :.1.z.l.:.i.g.l.:.F g 9.@.[ :.7.y.b.G.i.7.7.7.7.:.A *.:.:.i.8.l.&.:.n.l.n.z.6.l.@. .",
"0 { / / / / ! U ( @./ U U K E H 5.U ' / U U / ) / Y ' Y ` [ ( h b  .Y K ( @. . ./ ` / / ~ / F g l.[ / U Q [ Y ' Y ' g.@.[ / Y b ",
"e ' F / G S B F L R / F F ~ P 0 [ K L R K L n V Y L R F ( Y U e 0 @.Y V A Y ' P U C B Y U Y N 9 | F R B R / ( R Y U K K ( Y Z 5 ",
"e ( F H G B F V V Y R U U ~ Z g ..F F F K B b P F F b R / R B ; 0 1.( Y B B F E A z V K F Y U 5 E b b B Y U R ( F B L R R R B = ",
"r <.R F F A B R K C F L B B z w :.F Z Z G C V b V B b P C F N 0 0 +.P B N K K L B z B F V C N 9  .C b z G F F R D U U R C B b - ",
"u ,.H b Z B F T b K V L C j a 5 P C B Y R F K K B N b b g z N * h [ C b h V B b B b i j b b B 5  .B V z z V R T K b B K P C h # ",
"a ,.H D F h h b Z b F C F C l = h h B B j F b F B z h B F N y * h Y b h h z b g a u i i B B N ; [ n h b b b F B F h C D B C C & ",
"k ( F n N l V n u i h b n h g = R D u i b F n B V C b i h g y & e R h i h A h h r a B g g g l ; ,.F h z a b V h h B g B b F h O ",
"i [ C b e r b h r r j b C h i # V a - r b B h 9 i b i i e w z = e U a u M - w r 3 z B r b w g - ..B e a r r h K z r g r B G V = ",
"u x h i 9 5 g 9 u r g , r h h ; 5 e ; 0 a e - - 1 d d h 9 a 5 3 > O O i 5 * O 0 & * 9 , w 5 * w K h 9 r 9 3 9 3 ; - o 5 5 0 3 3 ",
"1.:.-.,.&.-.&.V y 8.i.-.7.l.:...&.r.:.6.l.:.-.U 5 u ..&.:.i.i.7.*.:.7.7.:.l.7.G - e | +.@.7.z.8.7.n.f.i.-.&.@.Z ,  .i.i. .7.| [ ",
"I U G U Y Y Y 5 r *.Y U A I ( H Y / Y U U K P B r 9 :.K Y / ` ` / ( ( / ' / U l 5 r  .P R / U { ~ :.` ( L &.U ; 0 a. .U Z Y D K ",
"B Z Y B b C L 5 w [ P b B F P K B B b V V C B i $ u ( P B B N L C U R V P U B - # > ( C C U C R V Y C j j R C * - #.R h B b j B ",
"F F H C n F C O r 2.J z N P F G F b b B b b D i > 5 R F j L D C j V K b Z Z g & # - @.B B C P P G z B b K V j # 5 ^ R b H j B z ",
"C j j d C j j ; e &.R z a V b a a r N u Z F u , 8 p [ F j h h h k a a i h a 3 = # r @.j i b V b l B 0 r C r r & e Y F D F a a Z ",
"u 0 r g w a r w 9 Z i 5 e O > - - 3 5 e g u 5 5 e w j r 5 r , d 8 a 5 , g ; - w a a z h 9 g r q X - ; * 5 9 5 a e h i b 0 , ; - ",
"u 8.i.i.i.:.n.I.l.7.7.y.:.:.8.K a g.i.y.-.1.:.<.h.<.:.i.:.n.1.C 5 5 :.:.@.:.6.f.7.i.*.:.7.l.a.K e 5 [ ,.@.:.r.:.7.r.:.@.&.-.{ l ",
", @.*.U P P } R / _ ' ( / ! ' h r z.[ ( $.' / U ' U / Y I  . .j 5 l r.( R Y  ./ G I L U ' ` / g 5 0 +.R ( ( [ H A U / K ( ~ ~ 0 ",
"5 5./ B V B G P / R K A G C H q 0 +.( K G ( F B R B Z V F Y R 5 # 0 [ K A Y U V V V A A R / F h 5 a l.R A G A B F Y R ( ~ G Z r ",
"a ( F B B Z Z Y R Y A A I A U i a 5.T F A R C Z Z b h Z U Z z * @ : | U L G Y K C V F R ~ U P h 5 e { F G U U F K / / / Y Y N ; ",
"u P B A C N N B C G F I I N F g u [ L L B N j N N N B Z B b l * # : | H Y C F P D F B L L Y n h e a / D F B R R R P ( P B F N * ",
"5 W Y b g h N B b R b b b N z ; u / n b z h h l b F b K b N z = * 0 ( R R L B K K C B C b C C 0 * 6 | D F j C F F R L R V F z = ",
"e ( h h n N k h H J F F D j C h a P h b h h b a h D F j n g g r 5 > R K T D H H D V b a i h j , e i ,.P L F j C h B K C j F a 3 ",
"u R H h D K l h L H H K h h b 0 5 R C Z a r l a h C C b C b h * > e R K F F V B B g h h h C b g e i | D h N z g u B D j C z a & ",
"e [ h a j g r b V V h i j b r ; - R D u e r 9 w r 0 b g h e 9 o 5 p K c c b u u g w u B N j b e 5 e  .h i N N ; 5 5 e b V a i # ",
"a 0 r 3 9 5 5 e 0 5 0 i B b 0 r e h b 5 5 5 3 3 * ; z 5 h 5 - + a u D h h h 9 e = * 5 b 0 0 0 a t r h 9 r w w & ; r 5 = 0 5 a 9 ",
"n.:.7.6.l.c.r.F w i.w.-.y.g.n.@.) | a.+.%.| :.Z 7 e r.*.7.:.1.] @.d.r.:.:.g.6.l # * { r.l.:.g.n.a.:.r.@.:.y.{ > 5 V.7.-.z.:.| :.",
"' I G I ' Y U j h l.R / ( ( ( U C F Z I ( U U 5 5 u  .Y ~ S F V C R G K Y Z U 0 5 5  .K R ' I U [ / H P K Z B h r k.Y ' ' I C F ",
"/ B b Y A B V ; a [ J R K K F C B b N L F L G 5 5 u  .j B b b V b b G B b b T h 5 0  .C B B N z V B b R K j a * r 1.Y B K G B b ",
"R V j A l b G , u ( C J H F U b h F U C F C B * 5 e e.F B b B b z b z g N F K : 5 0  .b b z h b h F h j g z 5 . e >.V z K b h b ",
"C b h B w a C u r Y h h V h B g e j i i C C h q e y *.V j n b b a a a y r a a # * k { N w a j i 5 l B r y k -   5 ( r N C e w C ",
"i , * ; ; 9 0 0 r B 9 9 j 9 , 3 = * * - 0 e 5 a 5 k N r r j h 0 = * 5 w 5 - 5 w 0 b 0 9 9 5 h d w r 9 5 5 ; 3 3 5 h 0 5 9 5 5 ; ",
"5 e <.:.w.:. . .@.:.7.n.a.[  .w 5 { :.h.k.8.*.l.1.i.l.g.l.G.1.V w e g.z.7.7.*.:.i.n.*.7.7.:.1.F = > 9.i.:.*.:.l.U.9.7.&.:.*.1.N ",
"5 w l.~ / ` K P P R ` ( @.P G 5 u &.) P ' ' U Y [ ( Y U ' Y I r 5 a g./ L C C H ` U Y I G U ) c > 0 @.P F R L L ' ` U ) ~ Y ( B ",
"- 9 @.D V F F P F F K F U I A 2 i [ F V ~ ~ Y F K K Z Z R A B 3 % e :.D U F B N C R Z Z U / C h e a [ F U Y Y I A S V A / E F 0 ",
"5 a / K F B F U B I U Y G C N * , [ F K C Z C F U A F V B B z & - 5 +.U B B B N b V B B C L C > r p @.( B B F N V V b L R U N 5 ",
"5 0 :.K V Y ~ b B A N B K K B 0 : / R Y U Z N B B Z F B B h z ; - e ,.R V N G B F b A z B V N 5 0 e ( R z z b z V j N V b G l 3 ",
"- 0 ,.[ b h b C N b b C V U j 9 * R P D N L F C P B G b R U j 5 5 u :.B F V b G C b Z K C B F a 8 r 1.F z Z F z B R j b V j z 9 ",
"> 0 ..R c V z b B j b b Z V u * 9 [ b b h D D H j C z z G b e 0 8 - / h a g g j n B F b m h C i - r R j h B L z z b b F C j j 9 ",
"- w / B h i u b C h i g a l a - u @.d b j g b b g g a a B g h 5 - 0 p.C i r w h F h B C j F h 9 0 r E h h B b z l p z C C C b , ",
"2 p  .C i r w e j b z r e 5 e w r L i N 5 w j r 0 h p a w 0 h e 5 e ' h 0 w b z g b b i r j 0 ; 0 e [ b 0 r q > i i h i V D b a ",
"5 e z ; i * 0 * & ; - & # & # & 5 * & & - - * * i ; w o # * u * - 0 B 0 * # * * = = 5 * h h = - 9 5 b j 5 a * a d < i ; i , > 5 "
};
