/* XPM */
static char *_75c738bd141405ddf2da40d32fe5a05tNpQRnpzLg2CgT8i[] = {
/* columns rows colors chars-per-pixel */
"64 64 151 2 ",
"   c #040E16",
".  c #050F18",
"X  c #061017",
"o  c #06121C",
"O  c #08141E",
"+  c #071622",
"@  c #091621",
"#  c #071924",
"$  c #0A1925",
"%  c #071A2A",
"&  c #0B1D2B",
"*  c #101E2A",
"=  c #0B1F30",
"-  c #0D202E",
";  c #10212E",
":  c #0C2233",
">  c #0E2639",
",  c #0E293D",
"<  c #122433",
"1  c #142837",
"2  c #112739",
"3  c #142A3C",
"4  c #192D3D",
"5  c #0F2B40",
"6  c #122D42",
"7  c #1A2F41",
"8  c #163145",
"9  c #1B3245",
"0  c #173349",
"q  c #1C364A",
"w  c #1F394D",
"e  c #1E3B51",
"r  c #20374A",
"t  c #203A4F",
"y  c #223C51",
"u  c #233F58",
"i  c #254057",
"p  c #284156",
"a  c #264259",
"s  c #26435B",
"d  c #27435B",
"f  c #254159",
"g  c #27445B",
"h  c #27435C",
"j  c #26425A",
"k  c #28435B",
"l  c #28435C",
"z  c #28445C",
"x  c #29455C",
"c  c #28455D",
"v  c #2A465F",
"b  c #29455D",
"n  c #2D485E",
"m  c #2A4760",
"M  c #274862",
"N  c #2B4862",
"B  c #2B4962",
"V  c #2C4861",
"C  c #2D4963",
"Z  c #2C4A62",
"A  c #2D4A62",
"S  c #2D4A64",
"D  c #2E4B64",
"F  c #2E4B66",
"G  c #2B4D67",
"H  c #2E4C66",
"J  c #2E4D66",
"K  c #2F4D66",
"L  c #2E4C67",
"P  c #2E4D67",
"I  c #2F4D67",
"U  c #2F4E67",
"Y  c #2D4A63",
"T  c #2F4D68",
"R  c #2F4E68",
"E  c #2F4E68",
"W  c #314F67",
"Q  c #304D66",
"!  c #304E68",
"~  c #304F69",
"^  c #314F69",
"/  c #334F68",
"(  c #324F69",
")  c #304F6A",
"_  c #314F69",
"`  c #2F516D",
"'  c #31516B",
"]  c #30506C",
"[  c #30506D",
"{  c #31516D",
"}  c #33506C",
"|  c #34536D",
" . c #34536E",
".. c #35546E",
"X. c #33526C",
"o. c #345671",
"O. c #365772",
"+. c #375772",
"@. c #365673",
"#. c #375775",
"$. c #365672",
"%. c #395672",
"&. c #375874",
"*. c #375875",
"=. c #375875",
"-. c #385873",
";. c #395974",
":. c #385976",
">. c #395A76",
",. c #395A77",
"<. c #395B77",
"1. c #3A5B76",
"2. c #3A5B77",
"3. c #395A76",
"4. c #395B78",
"5. c #3A5B79",
"6. c #3A5C78",
"7. c #3B5D78",
"8. c #3B5C79",
"9. c #3B5D79",
"0. c #3A5C7A",
"q. c #3B5C7A",
"w. c #3A5D7A",
"e. c #3B5D7A",
"r. c #3B5D7B",
"t. c #3B5E7B",
"y. c #3C5C79",
"u. c #3C5C7A",
"i. c #3C5D7A",
"p. c #3C5E7B",
"a. c #3D5E7B",
"s. c #3C5E7C",
"d. c #3D5F7C",
"f. c #3C5F7D",
"g. c #3D5F7D",
"h. c #3C5F7E",
"j. c #3D5F7E",
"k. c #3B5D7A",
"l. c #3D607E",
"z. c #3E617F",
"x. c #3E617E",
"c. c #40627F",
"v. c #3E6180",
"b. c #3F6180",
"n. c #3F6380",
"m. c #3F6281",
"M. c #406280",
"N. c #406381",
"B. c #406584",
"V. c #416584",
"C. c #406482",
/* pixels */
"$ : , : o : : & > > - $ O : , , , : - : : , > q 1 : q y t y 1.1.$ : 8 y t t t t t w ) #.9 & 6 w t t y w c N.9 + : : , $ O : > , ",
"& & < $ * & & @ & - & & & - & : 1 & $ @ - 1 & & # O 3 w t w T 1.& , w t t t t t t t w  .y + > q y t t t w 5.9 & & & & @ & & < - ",
"u.q.1.4 ] u.q.c l q.q.q.q.q.A ..q.u. .F u.q.K ] 4 o > 8 y w &.-.: 6 t t t t t t t y q K ) $ , q y t t w i n.9 h g.u.A y 1.q.q.) ",
"T h g.1 3 a ) 1.@.a a a c &.1.@.a a q.N.F c g.B.4 & 6 w w F n.@.- , 8 t t t t t t w y q.K & , 6 w y w y 5.@.1 : a a  .g.B y B g.",
"w y q.< % 0 w i i q w w t t w w t q a A w w k g.4 : 0 y t c q.&.$ & , q y t t t t w y z.K O : 6 w y w a g.K ; $ 8 w y K y w w g ",
"q ' n.1 : 6 0 w y y y w w w y t w q 8 w y w w g.7 > q w w w A 1.$ : 0 t t t t t t t w ] Q & 6 q t t t w ) B.7 : 6 q 8 q y w w w ",
": w ] 1 @ 3 , 6 8 8 8 6 : 6 0 8 6 : , 8 8 , 6 G 4 & 6 6 3 8 q K : , q y t t t t t y q K ) & 8 y t t t w y z.9 & 6 5 , 6 q 6 : 6 ",
"O o & @ . o & & @ & @ @ O & : : & O & : : $ & : $ O : : @ o & & & , 0 y t t t t t t w  .Q $ 6 w t t t t w q.9   % : @ $ = + o & ",
"1 A c c A A 4 o O O @ @ O O O O O O O O O O O O O O O o 1 k x p $ > 6 q t y t y y w y n.K O > q y t t t y q.9 t Q y 4 t A n i 4 ",
"& c q.z.] @.z.y o < q 3 & @ $ $ o & $ O O O O O O O @ O 3 y c &.$ : 6 w y q 6 0 0 6 y 1.' O > 8 q w w q F 5.< q o.&.@.n.@.5.V.] ",
"& , y  .i q ] z.9 ' B q w 0 0 t < : 6 3 9 7 & $ O O O O % 3 8 F < , 6 3 3 5 : > 5 > 3 q a & , > > 6 3 6 6 j 4 : 8 y ] c w t B z.",
"# 3 w t y w y 5.F ..y w y q 6 e q 6 y y y y t y 4 O O O O $ & 4 & : $ o O & $ @ & O @ & % O % o $ & o & # % $ $ 6 w w w t w T ] ",
"@ : q t t t y 1.K Q e w t t q w y w 9 y y t t t y 1 O O i %.' Q ) Q ) @.q x  .y r k ' } F A  .' ) ' c 9 y < o $ & 6 y t t t 1.K ",
"& , 8 y t t y q.y 1.c w y t y t y 1 < 7 6 q t w y 9 @ O 6 B ] n.z.z.&...q T z.g.g.z.n.@.K K ] z.z.z.z.@.g.1.< @ & < y w y w h z.",
"$ , 6 t y w c g.9 B w w t t t y 9 4 q 8 4 6 w y t w % O > , q K K y y y 4 y y y y c ] t q q w y c q.1.a y g.q % $ q q t t t t ] ",
"O % , w y t y 5.9 ' c y t y t w w w y w t t w 8 w y - O & 6 w w w w t t 0 w w w w w w t y y t w w c a q t q.i , : 4 @ 4 y t w ) ",
"O & , 0 y q t g.t @.@.a w q y y c c w w y i y 6 w 0 : o $ 3 w y t t y c 3 0 y y t t y t t t t t t w w w K g.9 6 : # @ O q w a g.",
"$ > > 6 8 , 6 c T #.c y c #.1.&.] 1.&.@.@.@.#.@.&.&.T $ @ 6 w t t w y c 7 q 0 t t t w t t t t y t t y q K @.< 8 , > : @ 0 y ..q.",
"@ O O & & $ & & 1 r y K K c q 1 1 r ) ] a u c K x y p 1 & 6 q y t t y 0 w y 7 q y w y y w y y q w t t t y #.4 6 , , , % 9 T N.m ",
"1 Q m Q Q A c 1 Q k 0 w  .' A c 1 K @.K ] ' T @.A x A 9 : 5 6 w t t q w y t y t t t y c q q w 8 w t t t w F y > 3 , , & 7 y @.1.",
"& y y A ' y K 1 y 1.u.@.' K n.' : j ) y a i y F c x t.y $ 6 6 w t t y t t y y t t t t t w 8 8 w y t t y w c j 3 3 , , , - w c z.",
"& , 6 w 0 a 5.& : w c F w q A k $ > 8 y t q q w t q @.t & 6 q y y w 8 6 8 q q t y y w 8 0 Q 1 q 8 y w q q ) a 6 , , , , # < B z.",
"$ > 5 8 6 0 ] & $ 8 t w y w c c O : 8 8 8 6 6 8 8 6 e t % 6 6 8 8 6 , : , 5 6 8 8 0 6 , 8 r > 5 , 6 6 5 > e t q 8 6 6 6 : O 1 K ",
". O : + + # : @ : q y t t w K &.# % % o $ - - & o o & & o : % o $ & o o O & : $ o & & $ 2 $ % : % o O & $ % @ 1 4 8 : : 6 : o O ",
"A q 4 p A x k # : y t t t y q.@.1 n y 7 7 k n 1 9 Q k 9 k n A 9 < A n A y 7 y n k x k 7 1 y n n n y 1 A n i 9 k a B A t e ` A t ",
"5.q.@.n.' K t.< , 6 w t t t ] x & B N.&.@.@.z.n > ` @.z.g.] 1.1.: M ..@.z.g.n.z.c c n.@.) N.g.] n.@.: B @.g.z.g.c c z.n.5.' &.n.",
"a 1.) y q a 1.- > , 0 t y q c @.& , i ..1.q ) A % 6 q K c 0 a 1.- > 8 w ) @.a y w w a 1.@.a y y q.l + : 6 c 1.a w w y T c q t a ",
"t t w w w a q.$ : 6 5 8 0 , w  .$ : 8 t w y 1.y o : w t t w c 1.$ & 6 w t w w w t t w t t w q ' n.y o & 0 t w w t t w w w y t w ",
"t t y y w @.A @ o $ : : + O & : @ % 8 y w c z.4 o 3 w t t y &.@.# - 6 w y y y t t t t t t y w y g.' # > q y t y y t y w t t t t ",
"t y q 0 w ' ] % 9 y y y y y 7 9 # : 8 y w y &.y o 6 w y 8 ' u.y @ : w y t q w y t t t t t t w y q...- 6 y y w 8 q t w y t w t y ",
"8 w , : 8 e &.< q ) F a y ' @.@.: 3 w t t w i k + 8 a 6 q B g.m @ : q y t w w w y q q y t t t w A a $ 6 w q 6 > 6 6 8 w 6 6 8 w ",
"- $ @ . & > 8 $ : 6 4 3 > 6 6 a * > y t t q T n & j t 9 y w F q.$ : 8 y w y y q q 0 w t t y y y @.Q o # : > & O & = # : : # + & ",
"1 & 1 9 7 $ o O @ @ @ @ @ O O # O : y t w F z.y o 0 4 8 t t K ] @ # 3 8 6 q y m 1 6 t t y w q q o.@.< 9 9 9 1 & & 1 7 9 9 4 4 7 ",
"g.B 1.z.u.7 q : @ O o @ - $ # O O : 0 y w c c.y o : 0 w 8 t u.m O @ 3 5 , > 6 : O : 8 8 8 3 > > 6 a 3 #.u.N.q.@.B 5.n.q.q.q.z.n.",
"] u.k a #.9 q.y 0 4 1 8 w y 7 O O : 6 q 8 , B A o 3 6 q 6 8 e  .$ o $ : % O @ O O $ : : : $ O @ - @ % 6 t A K ..q.) y t y w y &.",
"e a q y u.1 ] k t y w y t y 6 $ O o $ # o + & : . o : : + % : 2 $ & @ O o O O O O O o o o O O O O O @ : q w q y a w w t t t w y ",
"y w w K ] < c  .w w 8 q y t - o < y y y t 1 9 y y 9 1 y t t 4 < y u 6 : : < O & $ $ 1 1 < O O O @ @ O @ 0 y t y w y y t t t t w ",
"q t t q.B 3 ' K w t w q w y 1 @ $ c 5.5.B.q.z.5.5.z.t.g.5.B.g.F F ) w w e t q q 0 q w y y 6 6 q < O O % 8 y y q t w q y y t t y ",
", 6 q A @.y u.i y c ' ' K y q % o @ q y c ) ' w w ) ' y y A q.@.y  .w w w q w y y w 6 3 w t w t 0 + O > 6 8 8 , 8 6 6 8 0 w y q ",
"% : : > w y z.] ) ] A z.1.5.g.y O O 1 y q w y t t t w w t q c 1.c N.] c B B A 5.1.B A i t g B x ] r $ , : : # # : : : , , 3 : : ",
"$ @ @ : & < 7 1 6 8 0 9 0 y t e @ o 1 y t t t t t t t t y w c -.q t y K B a 9 9 9 q q 7 < 4 9 a T t & & @ @ & & & # @ : : : $ $ ",
" .y ) u.u...k 1.' 4 &.1.c B 5.] $ o 1 y w t t t t t t t y w c @.1 ..1.1.' 0 y t 7 1.@.1.k t A 1.1.-.1.n q 1  .Q @...t Q 5.1.1.1.",
"q.q.' a g 1.q.] @.& 0 ' 1.] ) A - @ ; y t t t t t t t t t t @.@.& q T q.q.@.n.c : e g ) z.g.q.F a m &.g.A & q y a u.q.&.m a a ] ",
"i K t w q a y c a & 6 w t w ) c 0 : $ 1 y y y t t t t t t y @.y & , 0 y a m q.c $ , q t A K y w w w w @.u.1 , w w a K t w w w w ",
"8 q w y w q q F A & q y t q K -.: , : @ & 4 9 y t t t t t y 1.c & , 8 y w q ] n o > w y q w t t y y w c g.; & 8 y t t w 8 w y y ",
": , 6 0 6 , 6 w Q & > 0 w 6 0 T 1 6 , : : & O 1 y t t t t w ) 5.$ : 6 w y w  .A . & w t t y t t t t t y @.; o > 6 8 0 6 , 6 8 8 ",
"O $ : : & @ & > & O @ & 3 & $ : 1 8 , 6 > : $ O q y t t y w a 1.$ & , q t a g.0 @ > 0 t t t t t t t y q A < o $ @ % : : & : & @ ",
"O O O O O O O O O O O O O O O o < y , , : @ @ 9 y w t t t w ] 1.# & 5 w w a n.y : 5 6 t t t t t t y w y @.; o O O O O O O O O O ",
"& @ O O $ & % & & O O O $ & @ O < w , , 6 & 1 y w y y y w a 1.y $ > q t y q  .A & 6 w t t t t t t w y q.A 9 p % @ O O O & & O O ",
"0 3 < $ q w w q 6 2 $ < q 6 - o < 6 , , , & 1 y y q 9 q q c 5.a & 6 y t t w @.c & 8 y t t t t t t w y 1.F a n.y 0 1 $ 9 w w 2 $ ",
"t y y t y t t t y y t y y w $ o < q , , , : & 0 4 % : % $ 1 9 ' < , q y w k g.9 O , q y t t t t t y w i q.a @.1.i q 0 y y t w 8 ",
"t y t t t y q 8 q q w t t w $ o ; q q 3 > $ $ % & & : & & &   @ & , 8 y t t ..q o > 6 t t t w t t t w c z.y i g.a w y w q y t y ",
"y 7 w y w q t w 8 8 0 t t w $ O $ & , , $ @ $ o $ t y t 4 1 7 r @ % 8 y t q ] A . & 6 t y w 8 t t t w  .F 4 ' @.w y t q 8 0 w t ",
"w 7 1 y 0 q t t t y y t t y ; o 7 c 6 q 6 q 8 $ @ j 1.g.u.) 1.g.$ @ 3 w t m n.c + 3 w 0 q 9 w y t t w ] a 1 q.y q 1 9 y t q q t ",
"a ' w 8 q y t a a q w y w w 7   9 ] q w 8 w y 3 @ > 6 y 1.] q.1.& > 6 w t c q.c & 0 w a 4 9 0 q y y q g @.9 u.y 6 y ) y w w y y ",
"z.5.1.c 1.q.q.g.q.m F 1.K m k # 7 g.m y y c y e $ $ 6 w y y  . .& , 6 6 8 : c A % 6 6 a 4 8 > 6 q q 6 w 1.c 1.z.B @.q.q.K c 1.q.",
"i q F a c x a c c K @.Q a ] 1.4 : ' %.A K ' c ' < X 2 y t q c k o o & > & O % & . o 6 9 & & . : > : $ & 3 0 t A c w c 1.] -.] a ",
"- 1 m F q o 9 c q 7 9 A c y y A i 9 1 1 r q t 9 $ @ 3 y t w c F < 9 < 9 1 ; ; 4 9 9 1 1 & 1 r 1 < < ; 9 9 9 $ r F c y 9 7 i B c ",
"i ] g.n.r @ @.q.] F z.1.u.1.@.z.q.n.) @.z.5.q.z.1 & 6 0 y w @.1.2 ] ] 5.z.T ' N.q.q.&.) 9 3 5.1.) c @.1.g.1.< u q.u.1.@.g.n.n.q.",
"g.u.a &.t % q y 5.1.m w y @.z.' w c T ) a w y q.9 : , 8 t c 1.c $ > w y K q.@.c t w @.n.w o 3 y ] g.c w y ' < & 8 i ] g.g.] F a ",
"A c q 1.t = 6 w y y q t w y a t w w w w w t w q.7 : , 8 w F z.a O : 6 q w y y w y w a z.A O 6 w y y w w y g.9 . > w w i a y q w ",
"w w i z.r o > t t w y t t t w t t t y y y w c n.4 & 6 q y w K q.$ @ 6 w y w t y t w y z.Q o & q t w t y #.] 1 O 3 w t w w t y t ",
"t t ) V.r . : w t t t t t t t t t t t t y q ) z.1 $ w y t w F  .$ : 0 y t t t t t y w ' ' @ - 6 w y w y 5.@.1 : 5 8 y t t t t t ",
"w y q.n.r o > 6 y t t t t t t t t t t t w y -.B & % 8 t t y @.t & , 8 y t t t t t t y 1.a $ , 8 t t t w y N.9 & , 8 y t t t t t "
};
