/* XPM */
static char *_7168290ab7843e8e496426ac776ab22xGqyM4CKrRwe525T[] = {
/* columns rows colors chars-per-pixel */
"64 64 255 2 ",
"   c #040101",
".  c #0C0301",
"X  c #0D0A03",
"o  c #0D0C0B",
"O  c #060807",
"+  c #120501",
"@  c #140B03",
"#  c #1B0D03",
"$  c #140D0B",
"%  c #1A0E0A",
"&  c #190700",
"*  c #1C1106",
"=  c #15110C",
"-  c #1C130C",
";  c #1C190D",
":  c #141103",
">  c #140D11",
",  c #1C1512",
"<  c #1D1914",
"1  c #181715",
"2  c #0B0A11",
"3  c #220F05",
"4  c #231306",
"5  c #23150D",
"6  c #231A0D",
"7  c #2B1C0D",
"8  c #291707",
"9  c #231613",
"0  c #231B13",
"q  c #2B1D14",
"w  c #241D1A",
"e  c #2B1D1B",
"r  c #281517",
"t  c #321E14",
"y  c #321B0D",
"u  c #1F201B",
"i  c #2D2215",
"p  c #25221B",
"a  c #2C231B",
"s  c #2B261C",
"d  c #332315",
"f  c #33241B",
"g  c #3A241C",
"h  c #352A1D",
"j  c #3B2A1D",
"k  c #3B2316",
"l  c #372A13",
"z  c #211A21",
"x  c #262322",
"c  c #2B2422",
"v  c #2E2B22",
"b  c #2D292A",
"n  c #332522",
"m  c #352B24",
"M  c #3B2C23",
"N  c #3B2D2B",
"B  c #362928",
"V  c #3C3125",
"C  c #36312A",
"Z  c #3D332B",
"A  c #3A3328",
"S  c #3C3331",
"D  c #3C3933",
"F  c #392D31",
"G  c #422D1D",
"H  c #442918",
"J  c #4B331E",
"K  c #432E22",
"L  c #462A21",
"P  c #433325",
"I  c #4A3525",
"U  c #44352A",
"Y  c #4A362B",
"T  c #45392D",
"R  c #4B3B2C",
"E  c #4D3A26",
"W  c #533C2D",
"Q  c #573B2A",
"!  c #443B33",
"~  c #4B3D33",
"^  c #483A38",
"/  c #533E31",
"(  c #583E31",
")  c #5B412D",
"_  c #4D4234",
"`  c #4D423A",
"'  c #46423A",
"]  c #544334",
"[  c #5A4433",
"{  c #53443A",
"}  c #5B443B",
"|  c #54493D",
" . c #5C4B3C",
".. c #5A4A35",
"X. c #634C3C",
"o. c #694D3B",
"O. c #644836",
"+. c #64513D",
"@. c #6C523D",
"#. c #6C5237",
"$. c #73553E",
"%. c #7A573C",
"&. c #4E4843",
"*. c #534541",
"=. c #544B42",
"-. c #5B4C43",
";. c #5A4D4A",
":. c #554C45",
">. c #5C5245",
",. c #5D534A",
"<. c #59564C",
"1. c #5C5A52",
"2. c #624E44",
"3. c #6D4E42",
"4. c #645344",
"5. c #6B5443",
"6. c #6C5A45",
"7. c #64554B",
"8. c #6B554A",
"9. c #645B4D",
"0. c #6B5A4C",
"q. c #635846",
"w. c #735543",
"e. c #745A45",
"r. c #7A5B45",
"t. c #73564A",
"y. c #745B4B",
"u. c #7A5D4B",
"i. c #795444",
"p. c #645B52",
"a. c #6B5D53",
"s. c #645A55",
"d. c #745D52",
"f. c #7B5E52",
"g. c #725D58",
"h. c #7D6146",
"j. c #75614C",
"k. c #7B614C",
"l. c #796549",
"z. c #6D6154",
"x. c #6D635B",
"c. c #666459",
"v. c #746252",
"b. c #7C6353",
"n. c #7D6954",
"m. c #73655A",
"M. c #7B655A",
"N. c #74695D",
"B. c #7C6B5B",
"V. c #776B54",
"C. c #736956",
"Z. c #756B63",
"A. c #7C6D63",
"S. c #746864",
"D. c #7E7264",
"F. c #7B756A",
"G. c #736F6C",
"H. c #825E4C",
"J. c #835D46",
"K. c #825E50",
"L. c #83634D",
"P. c #816A4E",
"I. c #8A694D",
"U. c #866449",
"Y. c #826553",
"T. c #836B55",
"R. c #8B6C55",
"E. c #836B5A",
"W. c #8C6D5A",
"Q. c #866657",
"!. c #916C54",
"~. c #84715D",
"^. c #8D735C",
"/. c #897457",
"(. c #93735B",
"). c #98765A",
"_. c #926E4C",
"`. c #826F62",
"'. c #8A6F61",
"]. c #847464",
"[. c #8B7663",
"{. c #8D7964",
"}. c #83766B",
"|. c #8A7669",
" X c #85796D",
".X c #8C7B6B",
"XX c #877864",
"oX c #927662",
"OX c #937B65",
"+X c #927C6C",
"@X c #997B65",
"#X c #847B73",
"$X c #8B7C72",
"%X c #847771",
"&X c #927F72",
"*X c #A27B64",
"=X c #8A836D",
"-X c #94826D",
";X c #9A846D",
":X c #9D896E",
">X c #8D8173",
",X c #8C837B",
"<X c #898576",
"1X c #948473",
"2X c #9B8673",
"3X c #958975",
"4X c #9D8B74",
"5X c #94867A",
"6X c #958B7C",
"7X c #9D8C7B",
"8X c #9A867A",
"9X c #9E917D",
"0X c #A4866B",
"qX c #A38D75",
"wX c #A28E7B",
"eX c #A68B75",
"rX c #A4937D",
"tX c #AA937C",
"yX c #AB9A7D",
"uX c #A69376",
"iX c #B5967B",
"pX c #9C8C82",
"aX c #968B81",
"sX c #9D9283",
"dX c #9D9388",
"fX c #8D8680",
"gX c #A48F81",
"hX c #A49483",
"jX c #AA9583",
"kX c #A49985",
"lX c #AB9B85",
"zX c #A59A8B",
"xX c #AB9B8B",
"cX c #A79789",
"vX c #B39B84",
"bX c #B29D8A",
"nX c #B39985",
"mX c #A89B94",
"MX c #B39E91",
"NX c #AEA28A",
"BX c #B4A28C",
"VX c #B9A48D",
"CX c #BCA88D",
"ZX c #ABA295",
"AX c #B4A393",
"SX c #BAA593",
"DX c #BCAA94",
"FX c #B4AA9A",
"GX c #BAAB9B",
"HX c #B7A699",
"JX c #BDADA0",
"KX c #C2AC97",
"LX c #C2B29E",
"PX c #C4B6A5",
"IX c #D0C1B9",
/* pixels */
"kX].[.E.4.hX7X7X8XpX'   c f & 9 r w f.R.n.;.X l.L.u.e.L.r.w.i m Y.y.j   < Z d.Y.1 O._.r.j.k.r.k.k.i.r.5.4 7.E.I.j.k.r.v.v.e.k.j.",
"@Xk.y.[ # R hXtXY.7XR q b.[ X.B.k.v.L.%.L.n   $.u.u.b.u.t.b.` X m v.v.X. .f Y 8.1 8.oXb.b.u.u.y.d.y.b.-.  C / ^.u.J.U.u.u.H.r.3.",
"i.W M e w @ A.+X0.}.a R B.b.y.y.e.v.H.h.E % $ 5.R.r.t.u.e.X.5     f v.X.2.U   * . W E.v.y.L.u.b.y.u.b.P . i G (.y.r.i.n.v.j.5.i ",
"~ 5 $ X   9 f # % $ a 7.y.k.f.d.d.m.3.u.+.=.< >.R.R.k.u.b.K # _ X 9 B n - . m 9.] 7 R _ R ) y.d.b.+.R q # }.~.(.y.r.w.} 0.d.K - ",
"X :   V +.k.6. .| & Y n.J.%.r.r.u.n.Y.r.Y.4.@ E y.W  .4.{ q -.{ @ v. ./ 2.f P 4.7.N . , . # 9 % & @   O   p + 5 ] n.d.r % # & X ",
"Z   ! B.@XR.u.E.a.a * j y.Y.b.b.u.+.5.X.] n   % $ + & $ . = a . O 1 - * 9 $ O > 3 * . m ! . p.N.N.x.A.N.x.x.N.h ; 7 8   . _ m O ",
"d.n % n 3 y t e 9       - q f w 5 X @ @ .   O   a { ` V @ %X$X1XOXL.R.I.r.T.b.5.w.y.b.[.] ; FXCXBXBXbXSXBXBXxX] K E.o.d.0.oXY.7.",
"U.y.@ ' Z.z.>.c.M.A.Z.Z.Z.z.5 a.g.1.S.A.A.D.F.` g y.b.y.8 8XoX).).r.Y.>.a j ( L.u.E.K.L.g $ dXeX7XrX7X4XuXwXhX=.[ ^.r.b.j.%.h.k.",
"u.B.5 5XDXvXjXAXVXbXBXBXSXhXP 7X5XKXnXxXAXnXKXF.. & 5 ; > 1Xn.y.y.e.y.5...j * { T  .M U 6 . q.=X7XrX7XwX2XwXsX_ V Q.i.J v.b.u.r.",
"r.5.* N.xXqXhX.X7XcX8X.XR M q }.1XvXuX3XrXqXtX>.q 2.] V $ {.L.e.u.u.u.Y.[.y.7 & + r r r 9 , @ e V n m a m f n < @ { _ #  .n.t.k.",
"r.v.- c C m m s V V i * % . + S..X-X4XxX1X-X1Xa P B.`.4., {.h.u.y.u.r.w.e.k.y.d.w mXAXxX5XpXpX1X+X|.}.>XA.|.`.$Xa.; .   4 ..E.k.",
"b.4.@ C Z.9.a.a.a.-.{ ~ | ` ` e f q 5Xx.T 2.9 . * 4 # : o 3X{.M.u.u.h.k.e.y.k.5.6 hXkXuXuXBXlXrXiXtXlX7XE.jXqX;X+XD.*.^ g t 4.Y.",
"y.W + 0.hXlXtXnXAXAXcX7XxXAXxX].a.5 a * 5 # V ,XsX1XpX<Xx }.bXA.y.u.e.u.r.k.k.Q , >XlXtXrXrX7XjX4X3X6Xs f [ 0.6.i.k.b.|.^   ] Q.",
"a %   # q 4 ~ hXtX-XjXtXrX-X.XhXBX1.  v.SXsXGXAXhXbXjX=XN {.OXw.f.f.u.k.e.y.b.[ $ aXcXhXrXwXxX1XB.A.{ + ~ W f.b.k.e.e.X.s   C P ",
"= 0 p.7.~ !   S.rX4XrXrXrX~.4XjX1Xv ' GX-X-XrXuXrXtX;X6.e n.T.Y.b.b.v.b.b.b.b. .- >XtXrXjXhXtX;X{.4.#  .oXR.R.r.6.k.u.R * 0 $ @ ",
"j Y.$.I.u.n.} f 1XhXhXhXhX7X.X-XK   $ A.jXcXcXuX9XhX&X9.z M R Y E X.5.] I Y ] j X  XcXrXrXhXrXhXhXh # .Xj.e.w.b.b.u.M.0.# 2.i   ",
"| P # , - j ] ; j.sX>X;X:XN.s 6 . s.! . %XkXtXhXwXzXF.~ # r e q 6 a a a - - - < % |.tXqXrXtXtXrX:XX.* a.u.k.Q.-.X.0.} 2.@ < X.[ ",
"> e m m a d f 1 g n N L t B 2   T PX| . }.yXqXrXeXN.c   7 XXT.(.).(.W.W.@XY.k.f.w }.8XzXzX8XlXzX<X=.o - i h f X * X % * . _ oX#.",
"k 0X).P.h.).I.u.L.E.y./.n._ X - lXtXV.. h V.lXwX0Xh X { T.j.e.i.u.e.r.r.k.u.E.X.* 1X4XwX7X;X;XrX7XY @ 2.3.o.i.y.o.y.0.Y & v.E.{ ",
"| E.b.d.g.u.e.f.r.u.b.r.k.~ 6 5XSXhX7X^   { >XA.=.X P 0XH.f.g.f.e.u.u.u.e.b.Y./ . .XnXhX].b.y.1X].W @ +X@X/.I.P.u.M.*.M ( W.R.k ",
"V k.r.y.d.u.%.e.b.f.t.u.f.0 g.MXwXlX8XmX;.# h f z   _ L.%.H.E.P.y.f.d.y.f.5.Y g O m Y ;.&.U f v =.n @ 8.} W t.y.n.4.# 6 +.k ..h ",
". H *Xi.u.r.H.u.e.j.k.L.5.& 4.uXhX;XtX>XT 3XxX7XtX:.f +XR.l.^.(.b.y.g.d.b.5.] R o h G M M t M 0 o @ = $ & : + v #.@.] 0.v.R >.*.",
"o 4./.e.y.y.u.d.k.u.e.u.] X X ..cXtXkX_ + P 7XxXyX] a n.P.k.b.u.L.$.i.L.%.U.Y.w.$ b.0X(.W.L.u.Y R E.y.u.t.d.y.4 $ N f & O.W.e.J.",
">.OXJ.r.g.u.u.r.u.b.u.f.N     % *.B._ @ . . h T S , f u.O.2.j G b.5.W 5.+.k.v.4.$ X.Y.u.w.Y.X.e ^.u.h.r.u.v.f.P O % ~ _ 0.j.j.J.",
"R d.y.b.k.t.e.b.r.@.7.R # 0 ; p 5 0 < o x ^ $X5X.X=.$ 1 @ + . X 0 5 0 .   6 6 5 X 7.k.L.r.R.R U T.@.b.e.b.X.M a . 0.0X).Y.b.e.u.",
"+ m f P j f q -.B $ w M y.u.W.R.^.j.B.h z.PXlXtXBX}.  m z.7.7.,.s.B m S.x.9.,.7.h ] W.r.) 6. .f $.L.w.e.d.U * X O m ..t.e.u.u.u.",
"i B i q i q 0 a i a . ..{.k.w.Q L.e. .& 4.AXXX4XOX-X1X7XlXKXSX1X[...R xXSXbXVXvX .7 d.y.7 q V n M *.q ~ { * 5 d `...& k.r.r.r.@.",
"R.(.Y.o.k.@.Y.Y.[ 6.d 7 R V - - } -.5   ! Z.p.Z 7 R pX+X1X1X~.B.a.5 B z.0.A.|.v.D . @ w @ X   @   o o   @ + 5 }.I.OXR 8 y.O.d a ",
"W  .4.K P f ~ # @ $ @ 9 ! M B N T T m Z n f m 3   - a.aX$X_ ` 6 b < w b w 0 < s <   &.dX6X5X3X.X-X.X.X>XdX,Xe S k ~ Z X - -   2 ",
"' w   X $ , = x g.Z.V 7.7XtXjXtXrX1XXXXXE.j.b.Y.1   q h 0     ~ 9XhX8X9X7X9X3X3XA.i  XxXlXvXvXyX:XlX2XlX4XjXv.K Z   $ s.-.9.4.,.",
"4.& + v.a.+ B.hXVXPXv.i ].7XXX.XX.j.[.1XE.E I b.p Z.].B.].}. XxXtXjXnXtXjX+X/ P ~ & N.].{.2X0.R z.,.B.7Xn.b.[.OXD V 1XjXbX2X2XOX",
"< $ 1.mX! + { | U D c   w a ~ B 5 e ;.*.Z w - B * 7XyXtXlXhXxXwXhXhX7XzXv.* ! ' ^ =.p 5 f e $ O $ X @ 0 m < p o ! zXtXqX9X9X3XrX",
"cX[.jXwX$X*.  . K R j ~ T M R P Z V V f M m P f $ sXmXcXxXlXjXjXbXrXxX,Xa  XFXHXVXDXA.0 h r.O.0.x # X.X. . .4.7 v.xXhXjX7XkXuXtX",
"kX3X1XhXxX}.0 D @X^.W.T.Y.R.eXoX!.).!.).R.(.oXE.p A T _ ] T V T ~ ,.Z M m.AXqXqXhX4XAX XM Y.r.o.@ { M.b.k.u.`.M 0.AX9XrXlXrXrXrX",
"^.9X9X9X4XjXq c 8.W ../ 0...j R [ 5.u.5.u.d.8.7.a 9.A.m.x.x.x.x.z.6 ~ AXxXwXtXtXsXtXjXA.i n.u.R.[ R M.e.H.r.M.w j 3XwXjX4XhXhXdX",
";XlXhXkXqXqX4.$ $ a - q i 6 * 5 % ! b.y.u.w.k.e.7 hXDXDXDXlXbXBXJXR v.AX7XhXrXhXdXtXtXZ.X ~ e.T.y P n.u.u.5.f   * >XcXqXqXtXrX7X",
"0XOX].-XtXlXD.   .[.E.[.E.~.~.b.V # y.b.r.O.e.#., A.}.8X8X+XhXwXpXf 4.AXjX7XhXhXsXtXeX`   X 6 7 -.y.u.t. .9   0 X p.xX~.R.oX;XtX",
"L b.y.0.].}.* - L.r.r.w.i.h.$.L.2.* 9 , 0 $ < ,   X 6 >.9X1X1X].m   ` ZX1X1X[.rXhXOX~.` X s.{ @ n M.t.j *   1.sX}.h P B.k.Y.Y.R.",
"r } w.] $ o   :.T.k.b.k.u.e.n.y.e.M.#   0 p v 0 w w w i ~ T U q - - $ m h 4. .b.jXwXg., <.xXwX}.m 4 M @ m dXhXkXxX1Xq R  .] P G ",
"X 4 5.#     . m k.E.b.w.E.y.E P o./ m * ZXFXxXDXAXAXbXbXgX7XmXzXjXxXaXm ; v 9 Z 5.4.9   7.eX;XpX.X>.u    XDXtXtXqXjXhX-.+ * ! U ",
"}.Z 1 ; .X-X].a i G S e d - % $ > > =   6XlX7X1X>X8XwX2XrXhXhXrXtX7XhXbXtX3Xq.i = < 9 s < :.rXqXT.XX9.  N.GX4XyXhX7XcXxX].4 g 0.",
"1X0.  V ;XvXnX1X' P   w G m V B H P V a m ~ Z $ X 9 ~ h { hXhXtXxX7X|.&X7X`.8X$Xm mXHXmXzXpX8XtXwX.X,.@ @ a.cX7XtXtXuXrXxXp.m @ ",
"h p O 1.,X1XhX7X>XtXB 4.iX0XI.(.0X@XE.;.* 7.a.z.p.z.-.T # T A.;XlX1Xy.1X2X4XhX] i GXbXT.B.lXtXqXE.hX .a 4.t v.BXrXhX9XhXrX.X.X] ",
"cXdX=.@ .XOXOXqX6X2Xm ~ !.Y.i.w.e.n.R + 8.tX^.[.iXnXnX7XaX6 x.FX].B.0.B.lXkX4.# $ ' { M + ! p.a.~.1X] V m.Y d D.7X9XrXhXwX2X@.e.",
"0.>.V . f 8XwXqXsXtXC Y R.t.t.n.8.b.B.Y.R.r.r.Q ) 5.4. .=., 0 :.{ ,.9 m m.-.5   &.Z.z.B.A.=.< 0 f i # - $ n 9 @ 0XjXwXwXhX&Xk f ",
"! ! S p . #XxXwXqXiXV ] !.e.k.e.Y.e.Y.r.e.u.n.k o $ . X     m  .{ { ` { ! >.' 9.AXBXBXlX3X7XXX7 a.N.x.a.=.# 0 < 1X8X.XwX7X0.R { ",
"LXSXxXA.& a.xXtXdXhXS ! b.y.M.0.r.u.e.u.r.b.W f   D N.x.N.4.7XxX{.XXcXkX1XC.a.>.M.4.R M 9 $ 5 { PXNXNXlXAXz.@ X a Z ~ V ]  .I ] ",
" .Y | m     =.].B.k.a Y R.u.$.L.k.b.d.y.f.e.w.j.f E DXqXqXB.X.] / ] { { f q ,.{ :.p.p.D < 1.,.ZXxX7XlX[.{.AX,.$ T * # - @ - @ X ",
"5 V f m Z B $   $ <   ~ R.R.Y.@.[ b.B./ K d.b.) e & g m b o   +   . X   h sXxXxXbXBXPXD.] LXbXqXrXrXxXtXuXtXm.= c @ , = $ $ * $ ",
"[ 0XW.*X!.R.w.[ I ~.q % ] k n e # M h * * h i * O x D.z.N.F.x.F.A.A.a ,.zXxX8XwXrX1X{ 7 P ].{.2X7XkX7XrX7X>XB $ ( o.[ W R R P U ",
"a h 6.r.r.u.4.9.! * = - : 6 $ ; 0 - $ $ - , + 9 = 9 }.LXvXVXLXxXAXHXT v.xXqXtXjXs.a s 0 c C m F.hX7XjXhX X! & f P./.Y.L.Y.Y.'.5.",
"fXN q M.g.{ + X       ;.[.(.W.Y.Y.W.Y.L.R.@X(.(.W.M $ ,X$XE oXgXhXxXT 4.hXlXlX1X7.1XSXbXMXGX7.0 B.2XiXwX7.- { u.j ..k.e.i.u.E.I ",
"jXrX .5 f 5 4.$X<X=Xv C T.$.u.k.z.4.E @.R.OX{.5.( 5   2 a . 0 ^ T T * 0 j 8 9. X3XcX8X~.E..X7.  T |.+Xv.a   i E.'.'.f.f.u.e.6.6.",
"uXlX>.  ! Z.FXNXnXKXY Y (.L.f.y.~ # J R.r.%.r.u.[ +.8.4. .] 0   { Z.x.N.z.N.9 0 s s V i 0 w < O $ 0 5 @   p a # K X.f.e.b.Y.k.e.",
"M.A.i *.IXHXjXqXwXxXV i R [ M @ $   7.+Xe.u.t.d.b.L.R.(.[ d q 9.GXPXAXGXGX.XA.0 b.{.k.o.b.5.X.8.C = S.Z.m.ZXFX#XT 6 7 d R / X.W ",
"w p . a.BX2XtXuXrXhXZ 9 Y U F < O ! B.Y.$.h.k.y.f.y.y.M $ o x.AXtXwX7XrX;X{.cXf w.^.u.Y.oXL.e.r.* z.IXxXvXuX{.AXzX! X < w w x , ",
"xXAXZ 9.BXqXhXrX9XSXm P Y.5.t.g m KXW.%.y.g.k.r.f.u.n.e X dX3X|.xXlXhXrXwXwX Xa 8 5.b.u.e.e.u.)   9.NXlXB.}.lXtXyX8Xj AXBXyXjXgX",
"7XcX' c.VXuX7XjXrXjXD X 8 = @ O ! -Xe.h.y.g.e.u.u.i.u.} % d n.;X2X{.wXqXtX;X4.0 5.E.t.e.h.e.k.k.e 9 a.{  .4.].v.;.^ % %XzXkXrXxX",
"cXxXm p.BX4XhX7X7XjXm  .0Xb.n.j M OXu.u.u.u.L.i.f.Y.j.-.* N.-X2XcXd.0.hXhXB.q X k.Y.w.u.u.e.e.y.`.f i ! ~ } { ~ U m m h A.3X8X4X",
"hXy.@ x.DXuX9XrX1XjXZ 6 E ~ T   . m i q # , ! m n * 5 =   :.aXa.q m 9 Z U Z X O w.e.u.u.r.u.k.y.r.E _ PXxXtX7XdXAXrXtX7.q -..X~.",
"E.@.0 ` -X;XxX4XrXtXC d 5.[ ..-.-.{  .-.>.Z     0 Z.p.,.D . 9 f ! V ! T V B s $ e.u.u.u.e.e.u.e.f.Y < F B r n S M M h Z < . 9 f ",
"u.w.* a y.J v.hXzXnXm E iX0X_.).I.0X).L.oXt.& V 9XGXGXlX1Xq { xXPXHXPXPXAXjX X0 y.E.E.f.M.b.b.n.5.# | zX1XwX8X6XpXaXdX5X0 { 7.X.",
"e.5.%   7 # * { 4.E.c U '.0.5.a.r.w.w.b./ G - ,XVX4XtXtXwX2.g.1X .].].D.0.R P . M j i M f d 7 7 6 8 7XBXlXcXBXtXnXjXMX0.G j.h.L.",
"4.k X G.}.=.p a 0 f = ~ Q.u.U.u.k.d.k.5.L k.f  XNXhXgXrXhX#Xc T i p ! s . $ :.<.<.m C #XF.%X X}.s.$XlXrXhXhX7XtXqXhXA.* f B.0.L "
};
