/* XPM */
static char *_81d240a5a5a4dabc4201bef09586199NcB7Nnuowd5nBtsr[] = {
/* columns rows colors chars-per-pixel */
"64 64 124 2 ",
"   c None",
".  c gray23",
"X  c #4A4A17",
"o  c #4F4F19",
"O  c #53531B",
"+  c #65651D",
"@  c #4D4D23",
"#  c #65652D",
"$  c #696929",
"%  c #0F4F4F",
"&  c #005B5B",
"*  c #294D4D",
"=  c #2D5151",
"-  c #026363",
";  c #006B6B",
":  c #007575",
">  c #007C7C",
",  c #2D7777",
"<  c #2E7979",
"1  c #327D7D",
"2  c #3B7979",
"3  c #4A4A4A",
"4  c #51514C",
"5  c #575757",
"6  c #585854",
"7  c #5D5D5B",
"8  c #62625F",
"9  c #666666",
"0  c #6C6C6C",
"q  c #737373",
"w  c #7B7B7A",
"e  c #8E8E22",
"r  c #959522",
"t  c #95953F",
"y  c #828245",
"u  c #8C8C4A",
"i  c #838354",
"p  c #888859",
"a  c #929254",
"s  c #81817F",
"d  c #008484",
"f  c #088383",
"g  c #008C8C",
"h  c #0A8B8B",
"j  c #128A8A",
"k  c #009393",
"l  c #0F9292",
"z  c #009C9C",
"x  c #0C9B9B",
"c  c #129494",
"v  c #1A9494",
"b  c #139C9C",
"n  c #1C9A9A",
"m  c #00A4A4",
"M  c #0CA3A3",
"N  c #05A9A9",
"B  c #0BABAB",
"V  c #15A4A4",
"C  c #15ADAD",
"Z  c #1BADAD",
"A  c #1DB1B1",
"S  c #21A6A6",
"D  c #2BA2A2",
"F  c #21AFAF",
"G  c #29AFAF",
"H  c #32ABAB",
"J  c #3EAFAF",
"K  c #23B3B3",
"L  c #2BB3B3",
"P  c #26B8B8",
"I  c #2CBABA",
"U  c #33B3B3",
"Y  c #34BBBB",
"T  c #3BBDBD",
"R  c #408F8F",
"E  c #5E9494",
"W  c #43A5A5",
"Q  c #45ABAB",
"!  c #54A8A8",
"~  c #45B3B3",
"^  c #4DB5B5",
"/  c #45BCBC",
"(  c #48BEBE",
")  c #51B7B7",
"_  c #50BEBE",
"`  c #5CBBBB",
"'  c #77A2A2",
"]  c #62BCBC",
"[  c #69BDBD",
"{  c #44C1C1",
"}  c #4BC3C3",
"|  c #53C3C3",
" . c #5CC6C6",
".. c #62C7C7",
"X. c #6BC0C0",
"o. c #65C8C8",
"O. c #6BC9C9",
"+. c #74C4C4",
"@. c #75CBCB",
"#. c #7BCDCD",
"$. c #71D0D0",
"%. c #78D3D3",
"&. c #808080",
"*. c #8E8E8E",
"=. c #939393",
"-. c #9B9B9B",
";. c #AEAEAE",
":. c gray71",
">. c #BCBCBC",
",. c #82C5C5",
"<. c #80CECE",
"1. c #84D3D3",
"2. c #8CD5D5",
"3. c #8BD9D9",
"4. c #93D3D3",
"5. c #94D9D9",
"6. c #9EDEDE",
"7. c #A8DCDC",
"8. c #A3E1E1",
"9. c #ACE5E5",
"0. c #B1E7E7",
"q. c #B5E9E9",
"w. c #BAEBEB",
"e. c #C3C3C3",
/* pixels */
". . . . . . . . . . . . . . . . . . . . . . . . . . .                     . . . . . . . . . . . . . . . . . . . . . . . . . . . ",
": : : : : : : : : : : : : : : : : : : : : : : : : : :                     : : : : : : : : : : : : : : : : : : : : : : : : : ; : ",
"d d d > c j d d d d d h v > d d d d h n > d d > d d >                     > d d > d d d > n h d d d > d c c d d > d d h v d d d ",
"k k g d > k k k k k d : k k k k k d > g k k k k k g d                     > k k k k k k d > k k k k g d > g k k k k d > g k k k ",
"m m m h g z m m m m g g z m m m m k g k m m m m g g g                     g m m m m m z g g m m m m m g g z N m m m g g z m m m ",
"K K > & & & & & & & & & & & & & & & & & - ; k g g k g                     c K K K K P > & & & & & & & & & & & & & & & & & & : K ",
"K Y U g d d d d > > : : : : : > : > : > : ; g k g g k                     c K K K K T L k b V V V V Z L G L T _  . . .$.1.] : K ",
"K Y H g g > d > > > : > ; : : : : : > > > ; g > x x g                     c K Z 1.K Y P B C A K K I I { } ..O.#.3.5.7.7.9.,.: K ",
"K Y H d d > d > : : : : : : : : > > > > > ; k > > g k                     c B k m K T T A A P P P T { } | #.#.%.5.8.8.9.w.,.: Z ",
"K Y U d d > > : : > : : : : : > > > > > > ; g g k z z                     c A C K K T T A A P I Y } | O.@.1.5.6.8.9.q.w.w.) : K ",
"K Y H d > > : : : : : : : : > > > > > d > ; g k z N m                     c K K K K T Y K P K T { }  .@.@.2.5.8.8.q.w.0.7.) : L ",
"F Y H > > : : : : : : : > > : > > d d d d ; k z N K M                     c K K K G T T P T Y } } @.@.1.4.6.8.0.q.w.0.8.7.D : K ",
"K Y H : : : > : : : : : : > > > > d d g d ; z N K Z m                     c K K K K T T K Y }  . .@.%.4.6.6.8.q.w.0.8.4.1.v : K ",
"K Y H : : : : : : : > : > > > d d d g g g ; B A A N z                     c K K K F T } { } } O.@.1.1.8.8.0.q.w.0.8.5.<.@.v : K ",
"K Y H : : : : : : > > > > > d d d g g g g ; K A m C V                     c K K K K T } }  .o.@.5.5.6.9.0.w.w.9.8.7.3.O.O.v : K ",
"K Y H : : : : : > : > > d d d d d g k z k - Z z  .} M                     c K F 1.K T } } O.@.1.1.6.8.8.q.0.9.8.3.#.O.|  .j : K ",
"Z K H : : : : : > > > > d d d g g k k z k - m z k A M                     c B k M K T  .O.#.%.7.6.0.9.w.w.q.8.4.1.@.O. .} h : Z ",
"m F H : : : : > > > > d d g g g g k z m z ; N C Z K M                     c A C A K T  .#.2.3.6.6.q.w.w.8.5.3.#.o. .} } I j : K ",
"k S H : : : > > > d d d d g g k z z m m m - F K K K M                     c K K K K T O.2.5.8.w.0.w.9.8.8.5.1.O. .| } I I h ; P ",
"g S H : > > > > > d d d g k k k z m m m z ; F K K K M                     c K K K K T $.5.7.8.0.w.w.9.7.3.#... .} } I K K h ; K ",
"g S H > > > > d d d g g k k k m m m m A S - K K K K M                     c K K K K T @.6.8.0.w.0.9.2.1.#.O. .} T T P K K f ; P ",
"g Z Q > > > > d d d g g k z z m m B C K Z ; F K K K M                     c K K K K T 1.0.w.w.0.6.8.3.#.O. .} / P P K K K f ; K ",
"g Q [ > d > d d g g k k z z m m m C K K Z - K K K K M                     c K K K K  .9.q.w.9.q.3.2.@. .} } Y I P K K N m d : L ",
"k ^ +.> d d d g g z k k m m m C A P K P K - F V  .} M                     c K Z 3.K $.0.w.w.8.6.2.@. ...} } I P P A A B m f - K ",
"k | #.> d d g g g k z z m m m C K P P Y L & C z k C M                     c B k m K %.w.8.7.3.<.O.o.} } P K K K K B m m m > - C ",
"z | #.d d d g k z z m m m C P K P A I } ~ & F A A K M                     c A C A K %.q.9.6.#.#. .| } { Y P K A C m m z m > - K ",
"B o.#.d g g z k k z m m B C A P P Y { } ( & F F K K M                     c K K K K %.9.3.1.o.O.} } I Y P P K C m m m z z > - K ",
"K  .] d g g z z m m m N A K P Y P } } O.` = 0 q q q w                     w 0 q q 0 ' 5.#...| | { I A P K C N m m m z k g : - A ",
"K ( ^ k k k z z m m C A P P P T {  .o.@.[ * 9 9 9 9 q                     q 9 9 9 8 E o.o.O.} } T I K K K A m m m z k k k : - m ",
"K ( ) k z z m m m B K A K I I } }  .O.#.X.* 9 9 9 9 w                     q 9 9 9 9 E o.} } Y T P P K A m m m m k k z g d : - k ",
"K ( _ z m m m m A A P P I { }  . .@.3.6.4.* 9 $ r p &.                    w a e # 9 E O.} } I P P K C C m m m z z k g d d : & g ",
"K ( _ z z m B B A P A P T } }  .O.3.2.6.4.* 7 @ O u -.                    =.t @ @ 8 E o.} Y P K K A N m z m z k g g g d d ; - g ",
"K ( } m m m C K K P I T } | o.#.2.5.7.q.7.* 6 o + i :.                    :.y + X 7 E | I P K K N N m m z z k k g d d d d ; - g ",
"K ( _ m C A K K P I } }  .o.@.2.5.0.q.w.6.* 7 4 8 &.e.                    :.w 6 4 7 E | K K K A m N z m z k k g g d d > > : - g ",
"K ( _ m C P P P Y Y } } O.#.3.5.7.9.w.0.4.* 9 0 w -.e.                    e.-.q 9 9 E | P K B m m m z z k g g d d d > > > ; - g ",
"K (  .A P K I Y } } @...<.2.5.9.w.w.q.0.4.* 7 0 =.*.-.                    =.=.*.0 7 E | A B N m z z k k k g g d d > d > > ; - k ",
"K (  .K P P I { |  .o.@.5.5.8.q.w.0.8.6.<.% , 1 1 1 R                     2 1 1 1 < ! _ C m m m z k k g d g d d > > > > > ; - m ",
"K ( | P Y I { } o.o.1.1.6.0.w.w.9.0.8.6.+.& F K K K M                     j K K K K | / m m m k k k g g d d d > > > : > : ; - B ",
"K (  .T { {  .o.@.#.6.0.9.w.w.0.9.6.1.1.X.& K K K K M                     j K K K K _ / m m z z k g g d d d > > > > > : : ; - K ",
"K /  .I { }  .O.#.3.6.6.w.w.8.8.6.3.1.#.` & F V ..} M                     j K S 1.K _ / z z k g g g d d > d > > > > : : : ; - C ",
"K ( O.}  . .@.3.6.6.0.w.w.0.9.6.5.2.#.@./ & C z k Z N                     j B k m K _ ~ z k k k g g d d > > > > : : : : : ; - m ",
"K ( o._  .@.2.3.0.9.w.0.0.6.6.1.1.#. .} ~ & K A Z K M                     j A C K K | ~ k k g d d d > > > > : > : : : : : ; - B ",
"K ( @.o.#.2.8.7.0.w.w.9.8.6.6.1.#.O. .} U & Z K K K M                     j K K K K | ~ g g g d > d > > > > : : : : : : : ; - K ",
"K ( #.@.1.3.8.0.w.0.0.6.6.1.#.@.O.} { T G & F K K K M                     j K K K K _ ~ g g d d d > > > > : : : : : : : : ; - K ",
"K ( <.1.5.8.w.w.9.8.8.5.5.%.@. .| T I I F & F K K K M                     j K K K K | Q d d d > > > > : : : : : : > : : > ; ; K ",
"K ( 1.9.0.0.w.q.0.7.6.3.<.@.O.} } } Y P Z & F K K K M                     j K K K K } Q d d d > > > > : : : : : : : : > d ; - K ",
"K ( 1.8.w.w.q.8.6.3.3.#.O.| } { Y P K K S & F K K K M                     j K K K K | Q d d > > > : : : : : : > > : > d f ; - K ",
"K ( 2.w.w.8.0.8.7.1.#.O.O.} { T P P K K Z & K V ..} M                     j K S 1.K _ Q > > > > : > : : : : : : : > > > > : - K ",
"K ( 2.w.9.8.8.1.1.@.@.} } T Y P K K K A m & Z z k C M                     j K V N C / Q > > > > : : : : : > : > > > > d g : - C ",
"K ( 2.9.9.6.5.2.#... .} T I P P K K B N z & F C A K M                     j K K C m J W > : : > : : : : : : : > > d d d d : - K ",
"K ( 2.8.6.1.3.@.@.} } { Y P K K K A m m z & F K K K M                     j K B m k ~ W > > : : : : : > : > > > d d d g g : - K ",
"K ( 1.6.2.#.@. .| } Y P P P A A C N m z k & F K K K M                     j B z k g ~ W : : : : : : : : > > > d d d g g k > - K ",
"K ( 1.5.<.#.@.| } Y T P P K A C m m m z k & F K K K M                     d z k k k ~ W : : : : : > : > > > d d d d g g k > - K ",
"K ( 1.#.#. .} { { A P K A C C m z z z k g & F K K K M                     > k k g g ~ W : ; : : : : > d d d d d g k k z z f - K ",
"K ( #.@.O.| } Y I A P C A C B m z z z k g & F K K K M                     : g k g g Q W : : : > : > > > > d d g g k k z z > - K ",
"K ( @...} T { P P P K A C m m z z k g g d & K V  .} M                     > d d V g ~ W : > : : > > d d d g g g k z m m m d - K ",
"K ( O.| T I I K A A C N m m z k k k g g d & Z m z Z M                     : g > g k ~ W : : : > > f d d d g k k z z z m N f - C ",
"K / @..... .| | |  .| / / ^ ^ ~ ^ ~ ~ J b - F C Z K M                     : g g k z / ] Q Q Q Q Q Q Q ~ ~ ~ ~ ^ ^ ( ( / / b ; K ",
"K Y / / / / / / } / } / / / { / / / / T K b K K K K M                     : k k z B Y / / / / ( } / / / ( / / / { / / / T K V K ",
"K K K K K K K K A K A K K K K K K K K K K K K K K K M                     : k m C K K K K K K K K K K K K K K K K K K K K K K K ",
"K K K V 3.K K K K K M 3.Y K K K K K S 1.K K K K K K M                     > m C K K K K K %.K K K K K V 5.K K K K K K G %.K K K ",
"K K B k z K K K K C k k A K K K K B k N K K K K K K M                     d A K K K K M k M K K K K B k z K K K K K N g M K K K ",
"K K K C A K K K K A C A K K K K K Z C K K K K K K K x                     h K K K K K A C K K K K K K C A K K K K K Z C K K K K ",
"5 5 5 5 5 5 7 5 5 5 5 5 5 5 5 5 5 5 5 5 5 5 5 5 5 5 3                     3 5 5 5 5 5 5 5 5 5 5 5 5 5 5 5 5 5 5 5 5 5 5 5 5 5 5 "
};
