/* XPM */
static char *c0062aa9da8a47208787ea07dea9e508LzXHJjY0TurtvnJA[] = {
/* columns rows colors chars-per-pixel */
"64 64 159 2 ",
"   c None",
".  c gray23",
"X  c #4A4A17",
"o  c #4F4F19",
"O  c #53531B",
"+  c #65651D",
"@  c #4D4D23",
"#  c #65652D",
"$  c #696929",
"%  c #0F4F4F",
"&  c #005B5B",
"*  c #294D4D",
"=  c #2D5151",
"-  c #006161",
";  c #006969",
":  c #007575",
">  c #007C7C",
",  c #2D7777",
"<  c #2E7979",
"1  c #327D7D",
"2  c #3B7979",
"3  c #4A4A4A",
"4  c #51514C",
"5  c #575757",
"6  c #585854",
"7  c #5D5D5B",
"8  c #62625F",
"9  c #666666",
"0  c #6C6C6C",
"q  c #737373",
"w  c #7B7B7A",
"e  c #8E8E22",
"r  c #959522",
"t  c #95953F",
"y  c #828245",
"u  c #8C8C4A",
"i  c #838354",
"p  c #888859",
"a  c #929254",
"s  c #81817F",
"d  c #008484",
"f  c #008D8D",
"g  c #0C8E8E",
"h  c #128989",
"j  c #009393",
"k  c #0F9292",
"l  c #009C9C",
"z  c #0C9B9B",
"x  c #129494",
"c  c #199797",
"v  c #139C9C",
"b  c #1E9C9C",
"n  c #01A4A4",
"m  c #0CA3A3",
"M  c #05A9A9",
"N  c #0BABAB",
"B  c #15A5A5",
"V  c #15ADAD",
"C  c #1BADAD",
"Z  c #1DB1B1",
"A  c #21AFAF",
"S  c #2AAFAF",
"D  c #3DAFAF",
"F  c #23B3B3",
"G  c #2BB3B3",
"H  c #27B8B8",
"J  c #2CBABA",
"K  c #35B4B4",
"L  c #33BBBB",
"P  c #3BBDBD",
"I  c #408F8F",
"U  c #5E9494",
"Y  c #43A5A5",
"T  c #45ABAB",
"R  c #54A8A8",
"E  c #45B2B2",
"W  c #45BCBC",
"Q  c #4ABBBB",
"!  c #5ABDBD",
"~  c #77A2A2",
"^  c #62BCBC",
"/  c #44C1C1",
"(  c #4BC3C3",
")  c #53C2C2",
"_  c #5CC6C6",
"`  c #62C7C7",
"'  c #6BC0C0",
"]  c #65C8C8",
"[  c #6DC9C9",
"{  c #6EC9C9",
"}  c #69CCCC",
"|  c #6BC9C9",
" . c #74C4C4",
".. c #70CACA",
"X. c #72CACA",
"o. c #77CBCB",
"O. c #75CBCB",
"+. c #75CBCB",
"@. c #79CCCC",
"#. c #7DCECE",
"$. c #7BCDCD",
"%. c #71D0D0",
"&. c #78D3D3",
"*. c #78D3D3",
"=. c #808080",
"-. c #8E8E8E",
";. c #939393",
":. c #9B9B9B",
">. c #AEAEAE",
",. c gray71",
"<. c #BCBCBC",
"1. c #80CFCF",
"2. c #80CACA",
"3. c #83D1D1",
"4. c #81D0D0",
"5. c #85D2D2",
"6. c #84D7D7",
"7. c #84D5D5",
"8. c #85D3D3",
"9. c #88D3D3",
"0. c #89D4D4",
"q. c #8CD5D5",
"w. c #8FD7D7",
"e. c #8DD6D6",
"r. c #8BD4D4",
"t. c #93D3D3",
"y. c #93D9D9",
"u. c #91D8D8",
"i. c #97DBDB",
"p. c #93D9D9",
"a. c #9ADCDC",
"s. c #9FDFDF",
"d. c #9EDEDE",
"f. c #9CDEDE",
"g. c #9EDEDE",
"h. c #A8DCDC",
"j. c #A3E1E1",
"k. c #A1E0E0",
"l. c #A5E1E1",
"z. c #A6E2E2",
"x. c #A3E1E1",
"c. c #A9E3E3",
"v. c #AAE4E4",
"b. c #ABE4E4",
"n. c #AEE5E5",
"m. c #AEE5E5",
"M. c #ACE5E5",
"N. c #B0E6E6",
"B. c #B1E7E7",
"V. c #B2E7E7",
"C. c #B1E7E7",
"Z. c #B3E8E8",
"A. c #B5E9E9",
"S. c #B7E9E9",
"D. c #B5E9E9",
"F. c #B9EAEA",
"G. c #BBEBEB",
"H. c #BAEBEB",
"J. c #C3C3C3",
/* pixels */
". . . . . . . . . . . . . . . . .                                                             . . . . . . . . . . . . . . . . . ",
": : : : : : : : : : : : : : : ; :                                                             : : : : : : : : : : : : : : : : : ",
"d g c d d d d d d b d d d d d d >                                                             > d d d > d > d c g > d d d > g x ",
"d > f j j j j d : f j j j j f f d                                                             d j j j j j j > > j j j j j d > f ",
"f d l M M n n j f j M M n n f f f                                                             j n n n n M l f f n M n M n f d l ",
"& & & & & & & & & & & ; j j f j j                                                             x F F F F G > & & & & & & & & & & ",
": : : ; : : : : > > : ; f f f j f                                                             x F F F F P S j v B B B B C G G G ",
": > : : : : : > : > : ; f > v z j                                                             x F C 7.F P H M V Z F F J J P ( ] ",
"> ; : : : : > > > > > ; f > > j j                                                             x N j n F P P V F F F H P P ( _ O.",
": : : : : > > > > d > ; f j f l l                                                             x C V F F P P Z Z H L P ( ) %...*.",
": : : > > > > > d d > ; f j l M m                                                             x F F F F P L F H H P / ( _ o.$.e.",
": : : > : > > d d d d ; j l M Z m                                                             x F F F F P P H P J ( ( O...3.y.s.",
": : > : > d > d d d d ; l M F C n                                                             x F F F F L P F P / _ _ o.#.e.a.s.",
": > > > > d d d f f f ; N F C M l                                                             x F F F F P ( P ( ( ] o.7.3.h.s.B.",
"> > > d > d d d f f f ; F C M V m                                                             x F A F F P ( ( ` ] $.e.a.f.v.B.H.",
"> > > d d d f f j l j ; V n _ Q m                                                             x F A 7.F P ( ( { o.3.3.s.j.v.A.Z.",
"> > d d f f f j j l j ; l l j Z m                                                             x N j n F P _ ..#.1.h.s.Z.v.H.H.A.",
"d > d d d f f j l n l ; N V C F m                                                             x C C A F P _ o.e.e.s.s.A.F.F.l.p.",
"d d d f f j l l n n l ; F F F F m                                                             x F F F F P } 3.f.s.A.Z.H.M.c.v.y.",
"d f f f j l l n n M l - C F F F m                                                             x F F F F P } f.j.j.B.H.H.c.h.0.*.",
"d f j j j l n n n Z C ; A F F F m                                                             x F F F F P } s.c.B.H.Z.l.e.3.$.] ",
"f f j l l n n N V F A ; A F F F m                                                             x F F F F P 7.B.F.H.M.h.j.e.$.{ ` ",
"j j l l n M M V F F C ; A F F F m                                                             x A A F F ` v.A.H.M.Z.e.e.{ _ ( ( ",
"j j n n n N Z F F H S & A V _ ( m                                                             x F A e.F O.A.H.F.j.s.e.O._ ] ( ( ",
"l l n n M V F H H L G & V l j Z m                                                             x N j n F *.H.j.h.e.*.] ] ( ( H F ",
"n n M V F Z H Z J ( W & A V C F m                                                             x Z V F F *.Z.c.s.#.o._ _ / / L H ",
"n M M V F H H L / ) Q & A F F S m                                                             x F F F F *.B.y.3.] ..( ( J L H Z ",
"n M F F F L H ( ( ] ! = 0 q q q w                                                             w 0 q q 0 ~ e.*.] _ ( W J H H F V ",
"V Z Z H H P / _ ] ..^ * 9 9 9 9 w                                                             q 9 9 0 9 U ] ] ] ) ( P J F F F Z ",
"F F H J J / ( _ ] $. .* 9 9 0 9 w                                                             q 9 9 9 9 U ] ( ( P P H F F Z M M ",
"F Z J / ( _ ` O.e.s.t.* 8 $ r p w                                                             w a e # 8 U } ( ( J H F F V V n n ",
"H H P ( ( _ } e.y.f.r.* 7 @ O u :.                                                            ;.u X @ 7 U ] / P Z H F Z M n n n ",
"L P ( _ ] O.e.y.c.Z.h.* 6 o + i ,.                                                            >.y + X 6 U _ F H F F M M n l l l ",
"( / _ ] @.8.a.m.Z.S.h.* 7 4 7 s J.                                                            <.w 7 3 8 U ) F F F Z M n n n l j ",
"( ( { $.e.i.s.M.G.N.t.* 9 0 w :.J.                                                            <.:.q 0 9 U ) H F N M n n l l j f ",
"{ ] 3.8.p.c.H.H.S.Z.t.* 7 0 -.-.:.                                                            :.-.-.0 7 U ) Z N M M l l j j j f ",
"] o.p.p.j.A.H.Z.h.s.$.% , 1 1 1 I                                                             2 1 1 1 , R Q N n M M l j j f d d ",
"7.9.j.B.H.H.v.Z.j.s. .& A F F F m                                                             h F F F F ) Q M n l j j j f f f d ",
"f.B.B.F.F.m.c.s.0.3.' & A F F F m                                                             h F F F F ) W l n l l j f d f d d ",
"s.s.F.A.c.j.h.0.0.#.! & A V _ ( m                                                             h F A 7.F ) W l l j f f f d d > > ",
"Z.F.H.M.M.k.p.e.O.O.Q & V l j C m                                                             h N j l F ) E l j j j f d d d > > ",
"G.B.v.h.f.*.e.o._ ( W & A C C F m                                                             h Z V F F ) W j j f f d d > d > > ",
"G.c.l.k.s.3.o.| _ ( K & F F F F m                                                             h F F F F ) E f f d d d d > > > > ",
"B.s.k.3.#.o.{ ( W P G & C F F F m                                                             h F F F F ) D f d d d d > > > > : ",
"j.y.y.$..._ _ P J J C & A F F F m                                                             h F F F F ) T f d d > > > > > : : ",
"s.w.3.O.{ ( ( / L H C & A F F F B                                                             h F F F A ) T d d d > > > : : : : ",
"e.$.} _ ) P L H F F A & A F F F m                                                             h F A F F Q T d > > > : > : : : : ",
"#.] } ( / P H F F G B & F B _ ( m                                                             h F A 7.F ) T > > > > > : : : : : ",
"o.( ( P L H F F F V n & B l j Z m                                                             h F v m V P T > > > > : : : : : : ",
"_ ( P J J F F F V M l & F Z Z F m                                                             h F F V n E T > : : : : : : : : : ",
"( / P H F F F Z M n l & C F F F m                                                             h F N n j E Y > > : : : : : : : > ",
"L Z H F Z Z N M n n j & A F F F m                                                             h N n j f E Y : : : : : : > : > > ",
"P H H H Z V n n l l j & A F F F m                                                             d l j f j T Y : : : : : > : > > > ",
"H Z Z V V M n l l j f & A F F F m                                                             > j j j f E Y : : : : : : > > d d ",
"H Z Z V M n l l j j f & A F F F m                                                             : f j f f E Y : : : > : > > > > d ",
"Z Z V M M l l j f j d & A B _ ( m                                                             : d d B j E Y ; : : : > > d d d f ",
"N M M l l j j f f f d & C n l C m                                                             > d > d j E Y : : : > > d d d d f ",
") W W Q Q E Q E E D v - F V C F m                                                             : f j j n W ^ T T T T T E T E E E ",
"Q W W W W W W W Q P F v F F F F m                                                             : j j l N L W W W W W / Q / Q Q Q ",
"F F F F F F F F F F F F F F F F m                                                             : j n V F F F F F F F F F F F F F ",
"B 6.L F F F F F C 6.F F F F F F m                                                             > n V F F F F C 6.F F F F F B i.H ",
"j l A F F F F N j m A F F F A F m                                                             d Z F F F F N j z F F F F N j l F ",
"V Z F F F F F Z V A F F F F F F m                                                             h F F F F F Z V F F F F F F V Z F ",
"5 5 5 5 5 5 5 5 5 5 5 5 5 5 5 6 3                                                             3 5 5 5 5 5 5 5 5 5 5 5 5 5 5 5 5 "
};
