/* XPM */
static char *_209a44119f1440ddf70c87bfc9c7f86QxF95Imr6d5UeLNW[] = {
/* columns rows colors chars-per-pixel */
"64 64 143 2 ",
"   c None",
".  c gray23",
"X  c #4A4A17",
"o  c #4F4F19",
"O  c #53531B",
"+  c #65651D",
"@  c #4D4D23",
"#  c #65652D",
"$  c #696929",
"%  c #0F4F4F",
"&  c #005B5B",
"*  c #294D4D",
"=  c #2D5151",
"-  c #006161",
";  c #006969",
":  c #007575",
">  c #007C7C",
",  c #2D7777",
"<  c #2E7979",
"1  c #327D7D",
"2  c #3B7979",
"3  c #4A4A4A",
"4  c #51514C",
"5  c #575757",
"6  c #585854",
"7  c #5D5D5B",
"8  c #62625F",
"9  c #666666",
"0  c #6C6C6C",
"q  c #737373",
"w  c #7B7B7A",
"e  c #8E8E22",
"r  c #959522",
"t  c #95953F",
"y  c #828245",
"u  c #8C8C4A",
"i  c #838354",
"p  c #888859",
"a  c #929254",
"s  c #81817F",
"d  c #008383",
"f  c #008D8D",
"g  c #0D8D8D",
"h  c #128989",
"j  c #009393",
"k  c #009C9C",
"l  c #0C9B9B",
"z  c #129494",
"x  c #139C9C",
"c  c #1E9C9C",
"v  c #01A4A4",
"b  c #0CA3A3",
"n  c #04A8A8",
"m  c #0BABAB",
"M  c #14A4A4",
"N  c #15ADAD",
"B  c #1CADAD",
"V  c #1CB1B1",
"C  c #21AFAF",
"Z  c #2AAFAF",
"A  c #3DAFAF",
"S  c #23B3B3",
"D  c #2BB4B4",
"F  c #2CB9B9",
"G  c #35B4B4",
"H  c #34BCBC",
"J  c #3BBDBD",
"K  c #408F8F",
"L  c #5E9494",
"P  c #43A5A5",
"I  c #45ABAB",
"U  c #54A8A8",
"Y  c #44B2B2",
"T  c #44BCBC",
"R  c #4ABBBB",
"E  c #5ABDBD",
"W  c #77A2A2",
"Q  c #62BCBC",
"!  c #44C1C1",
"~  c #4BC3C3",
"^  c #52C1C1",
"/  c #5CC6C6",
"(  c #63C7C7",
")  c #6BC0C0",
"_  c #66C8C8",
"`  c #6BC9C9",
"'  c #74C4C4",
"]  c #76CBCB",
"[  c #7BCDCD",
"{  c #71D0D0",
"}  c #78D3D3",
"|  c #808080",
" . c #8E8E8E",
".. c #939393",
"X. c #9B9B9B",
"o. c #AEAEAE",
"O. c gray71",
"+. c #BCBCBC",
"@. c #80CDCD",
"#. c #84D5D5",
"$. c #84D7D7",
"%. c #84D3D3",
"&. c #88D3D3",
"*. c #8FD1D1",
"=. c #88D4D4",
"-. c #8AD4D4",
";. c #8CD5D5",
":. c #8DD6D6",
">. c #8ED7D7",
",. c #8AD5D5",
"<. c #94D3D3",
"1. c #92D3D3",
"2. c #91D8D8",
"3. c #93D9D9",
"4. c #97DBDB",
"5. c #94DADA",
"6. c #9BDDDD",
"7. c #9CDEDE",
"8. c #9FDFDF",
"9. c #9EDDDD",
"0. c #A8DCDC",
"q. c #A1E0E0",
"w. c #A3E1E1",
"e. c #A4E1E1",
"r. c #A6E2E2",
"t. c #A3E1E1",
"y. c #A8E3E3",
"u. c #AAE4E4",
"i. c #AEE5E5",
"p. c #AFE6E6",
"a. c #ACE4E4",
"s. c #B0E6E6",
"d. c #B1E7E7",
"f. c #B3E7E7",
"g. c #B1E7E7",
"h. c #B3E8E8",
"j. c #B5E9E9",
"k. c #B7E9E9",
"l. c #B5E9E9",
"z. c #B9EAEA",
"x. c #BBEBEB",
"c. c #BBEBEB",
"v. c #C3C3C3",
/* pixels */
". . . . . . . . . . . .                                                                                 . . . . . . . . . . . . ",
": : : : : : : : : ; : :                                                                                 : : : : : : : : : : : ; ",
"d d d d c d d d d d > >                                                                                 : d d d d > d d z g d d ",
"j j d > f j j j j j f d                                                                                 d j j j j j f d > j j j ",
"v v j f j n n n v j f f                                                                                 f n v v v v k f f v v n ",
"& & & & & & ; j f f f j                                                                                 z S S S S D > & & & & & ",
": : : > : : ; f f j f f                                                                                 z S S S S J C j x M M M ",
": : > : > : ; j > l l f                                                                                 z S B $.S J F m N V V F ",
": > > : d : ; f > > f j                                                                                 z m j v S J J N S V F V ",
"> : > d d > ; f j j k k                                                                                 z B B V S J J V S F H J ",
"> > > > d > ; j j k n b                                                                                 z S S Z S J J S F V ! ! ",
": d d d d d ; j k n C b                                                                                 z S S S S J J S H H ~ ! ",
"d > d d f > ; k m S S v                                                                                 z S S S S J ! S J ! / / ",
"d d d f f f ; m S B v k                                                                                 z S S S S H ~ J ~ ~ ` { ",
"d d f f f f ; C B v N b                                                                                 z S S S S J ~ ~ ( ` } >.",
"d d f j j j ; N v / ~ b                                                                                 z S B #.S J ~ ~ ` ] } %.",
"f f j j k j ; k k j V b                                                                                 z m j v S J / ] [ %.8.8.",
"f f j k v k ; m N B S b                                                                                 z C N S C J / ] :.,.8.8.",
"j k k v v k ; C S C S b                                                                                 z S S S S J ` $.4.0.j.d.",
"k k k v n k ; C S S S b                                                                                 z S S S S J ] 4.t.e.d.x.",
"v v n n V C ; C S S S b                                                                                 z S S S S J { 8.y.p.c.h.",
"k v n N V B ; C S S S b                                                                                 z S S S S J #.p.k.c.p.8.",
"v n N S S B ; C S S S b                                                                                 z S S S S / u.k.c.u.h.:.",
"m V S S F Z & C N / ~ b                                                                                 z S B $.S ] h.x.x.t.0.$.",
"N V S F J D & B k j V b                                                                                 z m j v S } c.e.8.:.@.` ",
"S F F F T T & C N V S b                                                                                 z V N V S } d.p.8.[ ] / ",
"V F H ! ^ R & C S S S b                                                                                 z C S S S } u.3.%._ ] ~ ",
"H F ! ! _ E = 0 q q q w                                                                                 w q q q 0 W 2.} ( ~ / J ",
"! ! / ( ] ) * 9 9 9 9 q                                                                                 q 9 9 9 9 L ` _ ` ^ ~ J ",
"! ! / ` } ) * 9 9 9 9 w                                                                                 q 9 9 9 9 L ( ~ ~ H J F ",
"/ / { ,.8.<.* 8 $ r p |                                                                                 w a e # 9 L ` ~ ~ F S F ",
"/ ] ,.2.6.*.* 7 @ O u X.                                                                                 .t @ @ 7 L _ ! H F V V ",
"[ :.1.y.k.0.* 6 o + i O.                                                                                o.y + X 7 L ^ F V S S m ",
"%.3.d.l.c.6.* 7 4 7 s v.                                                                                +.w 7 4 7 L / S S S V n ",
"6.8.a.c.s.*.* 9 9 w X.v.                                                                                v...q 9 9 L ^ S S m n v ",
"y.x.c.k.l.<.* 7 0 ....X.                                                                                .... .0 7 L E V m n v v ",
"j.c.l.w.8.[ % , 1 1 1 K                                                                                 2 1 1 1 , U ^ m n v v k ",
"c.a.p.0.0.] & C S S S b                                                                                 h S S S S ^ R v v k j j ",
"p.u.8.%.=.) & C S S S b                                                                                 h S S S S ^ T v v k k j ",
"e.8.,.%.[ E & C M / ~ b                                                                                 h S B $.S E T v k j f f ",
"w.3.,.[ ] R & N k j V b                                                                                 h m j b S ^ T j j j f f ",
"[ ,.] / ~ T & C N B S m                                                                                 h V N C S ^ T j j f d d ",
"$.] ` / ~ G & C S S S b                                                                                 h S S S S ^ Y f f f d d ",
"] ] ~ T H Z & C S S Z b                                                                                 h S S S S R Y f d d d d ",
"/ / ! F F B & C S S S b                                                                                 h S S S S ^ Y d d d > > ",
"! ~ ! F S C & S S S S b                                                                                 h S S S S ^ I d d d > > ",
"J H S S Z B & C S S S b                                                                                 h S S S S ^ I d > > > > ",
"! F S S S C & C N / ~ b                                                                                 h C B #.S ^ I d > > > : ",
"V F V F N v & N k j B b                                                                                 h S M v N T I > > > > : ",
"F V V m n k & Z N V S b                                                                                 h S S m v Y I : : : : : ",
"S S V n v k & C S S S b                                                                                 h S N v j I I > : : : : ",
"V m n n k j & C S S S b                                                                                 h m k j j Y P : : : : : ",
"N n n k k j & C S S S b                                                                                 d k j j f Y P : : : : : ",
"v v k j j f & C S S S b                                                                                 > j f f f Y P : : : : : ",
"v k k k j f & C S S S b                                                                                 : f f j j I P : : : : : ",
"k k j f f f & C N / ~ b                                                                                 : f d M j Y P : : > : > ",
"j j f f f d & N v j B b                                                                                 : d : d j Y P : : : > > ",
"Y R Y Y A x & Z V B S b                                                                                 : j j j v T Q I I I U Y ",
"~ T T T J S M S S S S b                                                                                 : j j v m G T T T T T ! ",
"S S S S S S S S S S S b                                                                                 : k v N S S S S S S S S ",
"S S S C } S S S S S S b                                                                                 : v N S S S S C $.S S S ",
"S S m j b S S S S S S b                                                                                 d N S S S S m j b S S S ",
"S S B N S S S S S S S l                                                                                 h C S S S S V N S S S S ",
"5 5 5 5 5 5 5 5 5 5 5 3                                                                                 3 5 5 5 5 5 5 5 5 5 5 5 "
};
