/* XPM */
static char *_d76c143902a40f2ff365fdb78fc94adPU81zYI9OTYB9ece[] = {
/* columns rows colors chars-per-pixel */
"64 64 65 1 ",
"  c None",
". c gray23",
"X c #007373",
"o c #007474",
"O c #007676",
"+ c #007B7B",
"@ c #007C7C",
"# c #317D7D",
"$ c #327D7D",
"% c #3B7979",
"& c #484848",
"* c gray31",
"= c #535353",
"- c #656565",
"; c #676767",
": c #6F6F68",
"> c gray44",
", c #717171",
"< c #727272",
"1 c #7F7F74",
"2 c #797979",
"3 c #7B7B78",
"4 c gray48",
"5 c #95953F",
"6 c #828245",
"7 c #929254",
"8 c #008181",
"9 c #008282",
"0 c #008383",
"q c #008686",
"w c #008888",
"e c #008B8B",
"r c #008E8E",
"t c #008F8F",
"y c #128989",
"u c #009393",
"i c #009494",
"p c #009797",
"a c #009F9F",
"s c #129292",
"d c #129393",
"f c #129494",
"g c #129696",
"h c #00A2A2",
"j c #00A3A3",
"k c #00A7A7",
"l c #0AABAB",
"z c #0DAAAA",
"x c #13ADAD",
"c c #19AFAF",
"v c #1CB0B0",
"b c #1DB1B1",
"n c #20B0B0",
"m c #20B1B1",
"M c #23B3B3",
"N c #898989",
"B c #95958E",
"V c gray57",
"C c #929292",
"Z c gray59",
"A c #989898",
"S c #9F9F9F",
"D c #AEAEAE",
"F c gray72",
"G c #C0C0C0",
/* pixels */
".                                                             ..",
"o                                                             Xo",
"8                                                             +8",
"e                                                             8i",
"r                                                             rk",
"r                                                             gM",
"u                                                             gm",
"r                                                             gM",
"i                                                             gz",
"a                                                             gv",
"z                                                             gM",
"m                                                             dM",
"x                                                             gM",
"h                                                             dM",
"v                                                             dM",
"m                                                             gM",
"m                                                             gl",
"m                                                             dv",
"m                                                             gM",
"m                                                             dM",
"m                                                             gM",
"m                                                             gM",
"m                                                             gM",
"m                                                             dM",
"m                                                             dl",
"m                                                             sv",
"m                                                             sM",
",                                                             2,",
";                                                             ,;",
";                                                             ,;",
":                                                             27",
"1                                                             V5",
"B                                                             D6",
"D                                                             F3",
"D                                                             GA",
"N                                                             ZV",
"#                                                             %$",
"c                                                             yM",
"m                                                             yM",
"m                                                             yM",
"m                                                             yl",
"m                                                             yv",
"m                                                             yM",
"m                                                             yM",
"m                                                             yM",
"m                                                             yM",
"m                                                             yM",
"m                                                             yM",
"m                                                             yM",
"m                                                             yM",
"m                                                             yM",
"m                                                             yl",
"m                                                             8h",
"m                                                             @u",
"m                                                             ou",
"m                                                             oq",
"m                                                             oe",
"m                                                             or",
"m                                                             ou",
"m                                                             +i",
"m                                                             @h",
"m                                                             8v",
"m                                                             yM",
"*                                                             &="
};
