/* XPM */
static char *_441c7bebe304d69fd59426e9068b68c4b4NA6COjZEynwLN[] = {
/* columns rows colors chars-per-pixel */
"64 64 106 2 ",
"   c None",
".  c gray23",
"X  c #4A4A17",
"o  c #4F4F19",
"O  c #53531B",
"+  c #65651D",
"@  c #4D4D23",
"#  c #65652D",
"$  c #696929",
"%  c #0F4F4F",
"&  c #005B5B",
"*  c #294D4D",
"=  c #2D5151",
"-  c #006161",
";  c #006969",
":  c #007575",
">  c #007C7C",
",  c #2D7777",
"<  c #2E7979",
"1  c #327D7D",
"2  c #3B7979",
"3  c #4A4A4A",
"4  c #51514C",
"5  c #575757",
"6  c #585854",
"7  c #5D5D5B",
"8  c #62625F",
"9  c #666666",
"0  c #6C6C6C",
"q  c #737373",
"w  c #7B7B7A",
"e  c #8E8E22",
"r  c #959522",
"t  c #95953F",
"y  c #828245",
"u  c #8C8C4A",
"i  c #838354",
"p  c #888859",
"a  c #929254",
"s  c #81817F",
"d  c #008383",
"f  c #008E8E",
"g  c #128989",
"h  c #009393",
"j  c #009D9D",
"k  c #0C9B9B",
"l  c #129494",
"z  c #139E9E",
"x  c #02A3A3",
"c  c #0CA3A3",
"v  c #05A8A8",
"b  c #0BABAB",
"n  c #14A3A3",
"m  c #15ADAD",
"M  c #1CADAD",
"N  c #1DB1B1",
"B  c #21AFAF",
"V  c #2AAFAF",
"C  c #23B3B3",
"Z  c #2BB4B4",
"A  c #35B4B4",
"S  c #36B8B8",
"D  c #3ABCBC",
"F  c #408F8F",
"G  c #5E9494",
"H  c #43A5A5",
"J  c #43ABAB",
"K  c #54A8A8",
"L  c #43B2B2",
"P  c #43BABA",
"I  c #4ABBBB",
"U  c #5ABDBD",
"Y  c #77A2A2",
"T  c #62BCBC",
"R  c #4BC2C2",
"E  c #52C0C0",
"W  c #5DC6C6",
"Q  c #64C7C7",
"!  c #6BC0C0",
"~  c #6ACACA",
"^  c #74C4C4",
"/  c #71D0D0",
"(  c #78D3D3",
")  c #808080",
"_  c #8E8E8E",
"`  c #939393",
"'  c #9B9B9B",
"]  c #AEAEAE",
"[  c gray71",
"{  c #BCBCBC",
"}  c #80CACA",
"|  c #84D5D5",
" . c #84D7D7",
".. c #8FD1D1",
"X. c #92D3D3",
"o. c #94D3D3",
"O. c #93D9D9",
"+. c #9ED8D8",
"@. c #A8DCDC",
"#. c #AAE4E4",
"$. c #AEE6E6",
"%. c #B3E8E8",
"&. c #B5E8E8",
"*. c #BBEBEB",
"=. c #C0C0C0",
"-. c #C6C6C6",
/* pixels */
". . . . . . .                                                                                                     . . . . . . . ",
": : : : : : :                                                                                                     : : : : : : : ",
"d > d d d d >                                                                                                     > d d d d > d ",
"h h h h h f d                                                                                                     d h h h h h f ",
"x v x x h f f                                                                                                     f v x x v x x ",
"& ; h h f h f                                                                                                     l C C C C Z > ",
"> ; f f f f f                                                                                                     l C C C C S V ",
": ; f > k k f                                                                                                     l C M  .C D Z ",
"> ; f > > f h                                                                                                     l b j x C S D ",
"> ; f f h j j                                                                                                     l N m C C D D ",
"d ; f h j x c                                                                                                     l C C C C D D ",
"d ; h j v N c                                                                                                     l C C C C D D ",
"d ; j b C N x                                                                                                     l C C C C D D ",
"f ; b C N x j                                                                                                     l C C C C D R ",
"f ; M N x m c                                                                                                     l C C C C D R ",
"f ; m x W R c                                                                                                     l C B  .C D R ",
"h ; x j h N c                                                                                                     l b h x C S Q ",
"j ; c m m C c                                                                                                     l C m C C D W ",
"j ; B C C C c                                                                                                     l C C C C D ~ ",
"j ; B C C C c                                                                                                     l C C C C D / ",
"M ; B C C C c                                                                                                     l C C C C D / ",
"B ; C C C C c                                                                                                     l C C C C D  .",
"B & B C C C c                                                                                                     l C C C C W #.",
"C & B m W R c                                                                                                     l C B  .C / &.",
"A & m j h N c                                                                                                     l b h x C ( *.",
"L & M N m C c                                                                                                     l N m C C ( &.",
"I & C C C C c                                                                                                     l C C C C ( $.",
"U = 0 q q q w                                                                                                     w 0 q q 0 Y O.",
"T * 9 9 9 9 q                                                                                                     q 9 9 9 9 G ~ ",
"^ * 9 9 9 9 w                                                                                                     q 9 9 9 9 G Q ",
"o.* 8 $ r p )                                                                                                     w a e # 8 G ~ ",
"X.* 7 @ O u '                                                                                                     ` u @ o 7 G Q ",
"@.* 6 o + i [                                                                                                     ] y + X 7 G W ",
"+.* 7 4 8 s =.                                                                                                    { w 7 3 8 G E ",
"X.* 9 0 q ' -.                                                                                                    =.' q 9 9 G E ",
"X.* 7 0 ` ` '                                                                                                     ` ` _ 0 7 G E ",
"} % , 1 F , F                                                                                                     2 1 1 1 < K E ",
"^ & B C C C c                                                                                                     g C C C C E I ",
"T & B C C C c                                                                                                     g C C C C E P ",
"T & B m W R c                                                                                                     g C M  .C E P ",
"I & m j h N c                                                                                                     g b h c C E P ",
"P & B m N C c                                                                                                     g N m N C E L ",
"A & B C C C c                                                                                                     g C C C C E L ",
"V & B C C C c                                                                                                     g C C C C E L ",
"B & B C C C c                                                                                                     g C C C C E L ",
"M & B C C C c                                                                                                     g C C C C E J ",
"B & B C C C c                                                                                                     g C C C C E J ",
"B & B m W R c                                                                                                     g C B  .C E J ",
"k & m j h N c                                                                                                     g C n x m P J ",
"j & B m M C c                                                                                                     g C C m x L H ",
"h & B C C C c                                                                                                     g C b x h L J ",
"h & B C C C c                                                                                                     g b x h f L H ",
"h & B C C C c                                                                                                     d j h h h J H ",
"f & B C C C c                                                                                                     > h h f f L H ",
"f & C C C C c                                                                                                     : f f f f L H ",
"d & B m W R c                                                                                                     : d d m h J H ",
"d & m x j m c                                                                                                     : f : d h L H ",
"z - B N M C c                                                                                                     > f h h x P T ",
"C n C C C C c                                                                                                     : h h x b S R ",
"C C C C C C c                                                                                                     : h x m C C N ",
"C C C C C C c                                                                                                     > x m C C C C ",
"C C C C C C c                                                                                                     d m C C C C b ",
"C C C C C C c                                                                                                     g C C C C C N ",
"5 5 5 5 5 5 3                                                                                                     3 5 5 5 5 5 5 "
};
