/* XPM */
static char *feb51ee64e5749d8a9285955b8d8ff66OZJCzzBTbtLCh9j9[] = {
/* columns rows colors chars-per-pixel */
"64 64 139 2 ",
"   c None",
".  c #000001",
"X  c #080708",
"o  c #0C0C0D",
"O  c #110E07",
"+  c #1D160C",
"@  c #151415",
"#  c #181718",
"$  c #1D1C1D",
"%  c #23190D",
"&  c #281C0F",
"*  c #2B230F",
"=  c #2F2614",
"-  c #2E291F",
";  c #322113",
":  c #392516",
">  c #342913",
",  c #3A2D15",
"<  c #3D2F18",
"1  c #3E3017",
"2  c #3E3118",
"3  c #3B3B18",
"4  c #242424",
"5  c #2C2C2C",
"6  c #322B20",
"7  c #3E3124",
"8  c #343434",
"9  c #3C3C3C",
"0  c #402F17",
"q  c #413E14",
"w  c #423319",
"e  c #4A361C",
"r  c #4D391D",
"t  c #543D1E",
"y  c #7A2818",
"u  c #623819",
"i  c #443521",
"p  c #563E21",
"a  c #593E21",
"s  c #503B2B",
"d  c #493B30",
"f  c #796101",
"g  c #79791B",
"h  c #4C4A26",
"j  c #5C4121",
"k  c #5F5F2A",
"l  c #644524",
"z  c #684725",
"x  c #664826",
"c  c #6B4926",
"v  c #664628",
"b  c #6E4A28",
"n  c #744E2A",
"m  c #7C522E",
"M  c #7D5231",
"N  c #444444",
"B  c #4C4C4C",
"V  c gray33",
"C  c gray36",
"Z  c gray50",
"A  c #BE150A",
"S  c #8C321D",
"D  c #DC0606",
"F  c #C01704",
"G  c #FF0001",
"H  c #F33615",
"J  c #F8391A",
"K  c #FC3E15",
"L  c #EE3E21",
"P  c #A27F16",
"I  c #82542E",
"U  c #845631",
"Y  c #855832",
"T  c #8B5A34",
"R  c #925E36",
"E  c #945F38",
"W  c #9F632D",
"Q  c #966139",
"!  c #9C643B",
"~  c #A2673E",
"^  c #A4693F",
"/  c #F46C15",
"(  c #F27219",
")  c #F37E1A",
"_  c #DB5621",
"`  c #E77D26",
"'  c #FA6438",
"]  c #A56A41",
"[  c #AC6C43",
"{  c #B06F44",
"}  c #AD7144",
"|  c #B47245",
" . c #BB7747",
".. c #BD7A47",
"X. c #BB7649",
"o. c #BE7A4A",
"O. c #BF7D52",
"+. c #C37B4C",
"@. c #CB7F4F",
"#. c #9F9F1F",
"$. c #93931C",
"%. c #F2891D",
"&. c #D89D3C",
"*. c #EE822E",
"=. c #F8D138",
"-. c #CC804F",
";. c #CC8150",
":. c #D38553",
">. c #D98755",
",. c #DE8A56",
"<. c #D89D50",
"1. c #E08D57",
"2. c #E48D59",
"3. c #E5905B",
"4. c #EB935C",
"5. c #F2965E",
"6. c #F89A58",
"7. c #CFAF5F",
"8. c #E1AA4C",
"9. c #E9A059",
"0. c #F3BC59",
"q. c #D48C60",
"w. c #DE9263",
"e. c #E29260",
"r. c #EB9763",
"t. c #ED9B69",
"y. c #F49B66",
"u. c #F79D69",
"i. c #FEA36B",
"p. c #FFA772",
"a. c #FEA975",
"s. c #FFAE7D",
"d. c #F0C757",
"f. c #FAE142",
"g. c #EFC060",
"h. c #969188",
"j. c #9B9489",
"k. c #B1B1B1",
"l. c #FFB383",
/* pixels */
"                                                                                                                                ",
"                                                                                                                                ",
"                                                                                                                                ",
"                                                                                                                                ",
"                                                                                                                                ",
"                                                                                                                                ",
"                                                                                                                                ",
"                                                                                                                                ",
"                                                                                                                                ",
"                                                                                                                                ",
"                                                                                                                                ",
"                                                                                                                                ",
"                                                                                                                                ",
"                                                                                                                                ",
"                                                                                                                                ",
"                                                                                                                                ",
"                                                                                                                                ",
"                                                                                                                                ",
"                                                            N 9 9 9 9                                                           ",
"                                                          B N 5 4 8 B N                                                         ",
"                                                        B B 9 4 4 4 9 B                                                         ",
"                                                        9 B 8 4 4 4 8 B                                                         ",
"                                                        9 B k $.#.g B B 9                                                       ",
"                                                        4 q t $.0.f 3 4 5                                                       ",
"                                                      5 X j *.m _ W ` e o 5                                                     ",
"                                                      5 o T ' K J ..6.M @ 8                                                     ",
"                                                        @ D K %.%.H { = $                                                       ",
"                                                    ,.~ -.G ( =.=./ A . +.@.:.                                                  ",
"                                                >.| Q Q ! y A %.( L d e Q ! E 1.X.                                              ",
"                                              ! @.>.}  .^ T S A u 7.8.l ~ ..| 1...I                                             ",
"                                            t n | [ :.@.R +.4.U y.d.&.r.] +.+.] ! b t                                           ",
"                                            t l n I ! T !  .d.U ] >.<.4.[ Y Q U n p t                                           ",
"                                            e j x z c x j ! e.Y c :.q.+.x b c c x r e                                           ",
"                                              w w , , w , t m v i v m x 1 e r e r 2                                             ",
"                                                I x l x j n [ U n } Q U a n 0 >                                                 ",
"                                                n E U R I n { ^ m | M m m m >                                                   ",
"                                                  ^ ! U n x n t j ^ x j l t ,                                                   ",
"                                                  I o.] m t p t < m x n j e ,                                                   ",
"                                                  % ; : & + % j.h.; & + + O                                                     ",
"                                                  . . . . . . k.Z . . . . .                                                     ",
"                                                  -.! m ~ ] T x x E X.! b a *                                                   ",
"                                                -.5.5.4.X.+.~ l l ! [ ~ n b w                                                   ",
"                                                ,.5.5.-. .o.] j j ~ ] ] T n 2 >                                                 ",
"                                              -.5.5.5.+...o.E , 0 ] [ ] ! m w >                                                 ",
"                                              @.5.5.,.X.+.E t > w p [ { ] Y t w                                                 ",
"                                              } } ^ Q T n a > w w p v M T Q l 2                                                 ",
"                                              | X.2.,.[ ] x w > 0 j ~ >.5.p.n <                                                 ",
"                                              [ @.i.1.{ [ b >     a ] ;.y.l.a ; ,                                               ",
"                                            [ +.y.a.o.] ] z >     t b ] y.l.! a w                                               ",
"                                            { 1.a.2.Y Y E p         U o.4.s.O.~ m                                               ",
"                                            X.5.s.+.l n l 2         [ ! 4.s.w.T ~ n                                             ",
"                                            o.5.s.[ l c w w         b U 4.i.t.n m n                                             ",
"                                          ~ | 4.p.m n Y w 0         c [ ,.4.2.a j e                                             ",
"                                          n T +.+.l m m j           n T [ } ;.t > <                                             ",
"                                          t c M U a t r r             j l n Q T i i                                             ",
"                                          4 4 7 s 6 - =               4 5 8 o . .                                               ",
"                                          B d @ . @ 9                   5 9 o . .                                               ",
"                                          V N o . # 8                   5 8 # . #                                               ",
"                                            9 o . # 5                   4 8 4 . .                                               ",
"                                            N # . @                       5 8 # X X                                             ",
"                                            8 # . 5 5                     5 V 4 . .                                             ",
"                                          8 # . . $ 4                     B B N 4 X $                                           ",
"                                        # o 4 # . .                       $ 4 C V 5 . o                                         ",
"                                        X . . . .                           . 5 9 5 4 o                                         "
};
